<svg xmlns="http://www.w3.org/2000/svg" viewBox="0 0 32 32" id="wireless-connection"><g><path d="M30.12 18.86H1.88a1 1 0 0 0-1 1v10.35a1 1 0 0 0 1 1h28.24a1 1 0 0 0 1-1V19.86a1 1 0 0 0-1-1zm-1 2v4.54H2.88v-4.54zM2.88 29.21V27.4h26.24v1.81zm16.04-13.16a1 1 0 0 0 .71-1.71 5.13 5.13 0 0 0-7.25 0 1 1 0 0 0 1.41 1.41 3.13 3.13 0 0 1 4.43 0 1 1 0 0 0 .7.3z"></path><path d="M21.05 12.79a1 1 0 0 0 .71-1.71 8.16 8.16 0 0 0-11.52 0 1 1 0 0 0 1.41 1.41 6.15 6.15 0 0 1 8.69 0 1 1 0 0 0 .71.3Z"></path><path d="M22.84 9.56a1 1 0 0 0 .71-1.71 10.69 10.69 0 0 0-15.1 0 1 1 0 0 0 1.41 1.41 8.69 8.69 0 0 1 12.27 0 1 1 0 0 0 .71.3Z"></path><path d="M7.89 6.15a11.47 11.47 0 0 1 16.22 0 1 1 0 0 0 1.41-1.41 13.47 13.47 0 0 0-19 0 1 1 0 0 0 1.37 1.41zm7.71 9.95a1 1 0 0 0 0 2h.81a1 1 0 1 0 0-2z"></path></g></svg>