<svg width="238" height="238" viewBox="0 0 238 238" fill="none" xmlns="http://www.w3.org/2000/svg">
<path d="M58.4338 75.1414C58.7289 72.966 55.6634 71.1763 53.3596 70.9906C52.26 70.905 51.1176 71.0716 50.0752 70.7098C47.819 69.9196 46.9146 67.0065 44.7154 66.0783C43.0685 65.3834 41.174 66.0022 39.5794 66.8066C37.9848 67.611 36.4045 68.6202 34.6195 68.7344C33.0725 68.8344 31.3874 68.2584 30.0308 69.0152C29.017 69.5769 28.4886 70.7431 27.5556 71.4333C26.6227 72.1235 25.4565 72.2473 24.3236 72.3092C23.1907 72.371 22.0198 72.3806 20.9916 72.8518C19.9634 73.323 19.0876 74.4131 19.3256 75.5269L58.4338 75.1414Z" fill="#EBEBEB"/>
<path d="M217.194 51.4366C217.518 49.0566 214.176 47.1192 211.658 46.9146C210.463 46.8194 209.216 47.0002 208.079 46.6052C205.622 45.7484 204.637 42.5687 202.238 41.5548C200.444 40.798 198.373 41.4739 196.636 42.3497C194.898 43.2256 193.175 44.3299 191.233 44.4536C189.538 44.5584 187.701 43.9348 186.225 44.7583C185.121 45.3771 184.545 46.6623 183.527 47.3953C182.508 48.1284 181.237 48.2854 180.004 48.3473C178.771 48.4092 177.491 48.4235 176.368 48.9376C175.244 49.4516 174.316 50.6416 174.549 51.8554L217.194 51.4366Z" fill="#F5F5F5"/>
<path d="M172.964 77.3976C173.293 75.0176 169.946 73.0803 167.433 72.8756C166.233 72.7804 164.986 72.9613 163.854 72.5662C161.393 71.7094 160.407 68.5297 158.008 67.5158C156.214 66.759 154.148 67.4349 152.406 68.3108C150.664 69.1866 148.945 70.2909 147.003 70.4147C145.309 70.5194 143.476 69.8959 141.996 70.7193C140.891 71.3381 140.315 72.6233 139.297 73.3564C138.278 74.0894 137.007 74.2465 135.774 74.3084C134.541 74.3702 133.266 74.3845 132.142 74.8986C131.019 75.4127 130.086 76.6027 130.319 77.8165L172.964 77.3976Z" fill="#F5F5F5"/>
<path d="M145.328 37.1566C145.804 33.8579 141.124 31.1399 137.626 30.8591C135.955 30.7258 134.222 30.9781 132.642 30.4307C129.215 29.2359 127.844 24.8091 124.503 23.4002C122.004 22.3434 119.124 23.2812 116.701 24.5045C114.278 25.7278 111.884 27.2558 109.175 27.4319C106.824 27.5794 104.268 26.7084 102.207 27.8555C100.669 28.7123 99.8648 30.483 98.4511 31.5255C97.0374 32.5679 95.2619 32.7631 93.5435 32.8583C91.8252 32.9535 90.0497 32.9678 88.4836 33.6865C86.9176 34.4053 85.6276 36.0665 85.9513 37.742L145.328 37.1566Z" fill="#EBEBEB"/>
<path d="M41.0836 155.214C42.3354 154.386 42.7972 152.758 42.8448 151.259C42.8924 149.759 42.621 148.25 42.8162 146.76C42.9733 145.566 42.7543 144.309 42.6591 143.105C42.4735 140.725 41.0788 140.391 40.0744 138.24C39.0701 136.088 40.5504 135.551 40.0411 134.651C39.7746 134.208 39.0368 134.361 38.5798 134.589C38.1335 134.849 37.7448 135.197 37.4374 135.612C35.8238 137.559 34.4148 139.944 34.648 142.462C34.7575 143.719 35.2716 144.899 35.5382 146.127C35.9618 148.055 35.8142 150.168 36.7948 151.882C37.7135 153.477 39.4318 154.405 41.0788 155.257" fill="#EBEBEB"/>
<path d="M43.1304 162.792C42.6544 159.503 44.2252 155.485 46.6147 153.167C47.6238 152.187 48.8566 151.382 49.5516 150.159C50.3513 148.731 50.3275 146.975 51.1652 145.589C52.4219 143.514 55.1494 142.952 57.5722 142.81C59.995 142.667 65.093 139.82 64.5408 141.191C62.7463 146.37 63.1128 146.075 56.7106 150.83C54.0784 152.782 56.4869 158.594 49.1898 160.85C47.1859 161.473 44.7202 161.426 43.178 162.849" fill="#EBEBEB"/>
<path d="M44.368 196.26C44.3961 196.299 44.4216 196.34 44.4441 196.383L44.368 196.26Z" fill="#455A64"/>
<path d="M34.5766 187.22C38.34 188.662 41.4952 191.35 43.5159 194.836L44.368 196.264C44.0062 195.736 43.2018 195.698 42.5354 195.617C41.2829 195.468 40.1131 194.915 39.2034 194.041C38.6944 193.448 38.1389 192.895 37.5421 192.39C36.9355 192.039 36.2982 191.744 35.6381 191.509C34.1863 190.862 32.9916 189.748 31.5588 189.058C30.126 188.367 28.4553 188.106 26.8797 187.711C25.3042 187.316 23.6905 186.692 22.6481 185.445C26.2324 185.583 30.5592 185.764 34.5766 187.22Z" fill="#EBEBEB"/>
<path d="M28.8551 167.043C30.2165 167.676 31.159 168.985 32.4965 169.661C33.7056 170.27 35.1098 170.308 36.4235 170.613C39.5699 171.379 43.4683 177.22 45.5865 180.133C44.7345 180.09 43.0447 179.376 41.4739 179.4C39.9031 179.423 37.8468 178.981 36.2855 178.819C31.1685 178.286 28.7123 175.796 24.8377 172.498C22.51 170.537 19.7064 169.737 18.2308 167.076C21.5295 168.504 25.585 165.529 28.8551 167.043Z" fill="#EBEBEB"/>
<path d="M43.1494 165.615C41.3549 160.412 36.652 156.376 31.6873 153.957C26.647 151.535 20.8557 151.193 15.5652 153.005C18.5354 156.913 21.5533 157.404 26.3323 158.537C27.1606 158.732 29.2169 158.118 30.7115 159.189C31.3113 159.622 31.4493 161.35 34.9146 161.992C38.3799 162.635 41.2168 163.311 43.1494 165.629" fill="#EBEBEB"/>
<path d="M39.37 144.228C39.3758 144.285 39.3758 144.342 39.37 144.399C39.37 144.523 39.37 144.69 39.3938 144.899V145.708C39.3938 146.027 39.4461 146.399 39.4747 146.808C39.6876 149.148 40.0806 151.468 40.6504 153.748C41.3263 156.642 42.383 160.022 43.554 163.777C44.8618 167.837 45.9331 171.969 46.7622 176.153C48.2504 183.778 48.87 191.547 48.6091 199.311C48.5308 202.542 48.2574 205.766 47.7904 208.964C47.7831 208.909 47.7831 208.853 47.7904 208.797C47.7904 208.674 47.8047 208.507 47.8332 208.298C47.8761 207.85 47.9427 207.208 48.0236 206.394C48.1522 204.737 48.3664 202.338 48.4282 199.363C48.6414 191.615 48.0029 183.867 46.5242 176.258C45.697 172.076 44.6354 167.945 43.3446 163.882C42.1831 160.126 41.1359 156.742 40.4886 153.824C39.9415 151.535 39.5848 149.204 39.4223 146.856C39.4223 146.441 39.3795 146.07 39.3652 145.746C39.3509 145.423 39.3652 145.161 39.3652 144.937V144.437C39.3563 144.368 39.3579 144.297 39.37 144.228Z" fill="#E0E0E0"/>
<path d="M20.7584 153.643H21.0582C21.2534 153.643 21.5342 153.643 21.9103 153.643C22.9562 153.684 23.9988 153.785 25.0328 153.948C26.5689 154.181 28.0829 154.541 29.5596 155.024C31.3784 155.598 33.1182 156.398 34.7385 157.404C37.6535 159.284 40.2286 161.645 42.3545 164.387C42.9969 165.213 43.5913 166.076 44.1347 166.971C44.3299 167.285 44.4632 167.538 44.5584 167.709C44.6139 167.792 44.6587 167.882 44.6916 167.976C44.6261 167.9 44.5672 167.819 44.5155 167.733C44.406 167.571 44.2585 167.328 44.0395 167.024C43.6349 166.405 43.0256 165.524 42.2022 164.496C40.0511 161.806 37.4793 159.482 34.5862 157.613C32.9805 156.617 31.2609 155.818 29.4644 155.233C28.0005 154.746 26.5015 154.373 24.9805 154.115C23.681 153.896 22.6005 153.786 21.8817 153.734C21.5152 153.7 21.2248 153.691 21.0344 153.677C20.9414 153.676 20.8488 153.665 20.7584 153.643Z" fill="#E0E0E0"/>
<path d="M59.2572 145.418C59.1841 145.458 59.1077 145.491 59.0288 145.518L58.3624 145.785C57.5521 146.107 56.7703 146.497 56.0252 146.951C55.5123 147.255 55.0551 147.644 54.6734 148.103C54.2774 148.665 53.9303 149.261 53.6357 149.883C53.3168 150.535 53.0121 151.244 52.736 151.987C52.5056 152.783 52.2291 153.565 51.9078 154.329C51.5117 155.072 50.9788 155.734 50.337 156.28C49.7325 156.818 49.0994 157.266 48.5044 157.708C47.4419 158.451 46.4393 159.275 45.5056 160.174C44.8892 160.792 44.3076 161.443 43.7634 162.126L43.316 162.678C43.2679 162.746 43.212 162.808 43.1494 162.863C43.181 162.786 43.2244 162.714 43.2779 162.649L43.6825 162.059C44.2029 161.349 44.7707 160.674 45.3818 160.041C46.3061 159.116 47.306 158.271 48.3711 157.513C49.5373 156.642 50.9177 155.714 51.7031 154.219C52.0162 153.463 52.2894 152.691 52.5218 151.906C52.792 151.181 53.1002 150.471 53.4453 149.778C53.7529 149.147 54.1145 148.543 54.5258 147.974C54.9287 147.502 55.4122 147.106 55.9538 146.803C56.7099 146.358 57.5069 145.987 58.3338 145.694C58.6289 145.589 58.8574 145.518 59.0145 145.47C59.0924 145.441 59.1742 145.423 59.2572 145.418Z" fill="#E0E0E0"/>
<path d="M25.228 169.604C25.3082 169.639 25.3847 169.682 25.4565 169.732L26.0848 170.137C26.6322 170.489 27.4128 171.008 28.4029 171.612C29.5547 172.323 30.7612 172.94 32.011 173.459C33.439 174.035 35.0526 174.487 36.7377 175.049C39.6174 176.035 42.3039 177.513 44.6774 179.419C45.6008 180.128 46.3243 180.728 46.8241 181.147L47.3906 181.623C47.5191 181.737 47.5857 181.799 47.5762 181.803C47.4968 181.767 47.423 181.718 47.3572 181.661L46.7622 181.185C46.2482 180.794 45.5056 180.233 44.5726 179.528C42.1858 177.677 39.5117 176.23 36.6568 175.244C34.986 174.687 33.3533 174.226 31.9253 173.631C30.6675 173.1 29.4572 172.463 28.3077 171.727C27.3272 171.103 26.5608 170.56 26.0324 170.18L25.4279 169.737C25.3559 169.701 25.2887 169.656 25.228 169.604Z" fill="#E0E0E0"/>
<path d="M48.3949 178.752C50.7749 176.22 50.1656 171.788 52.7075 169.427C54.2878 167.957 56.6964 167.7 58.3481 166.305C59.4238 165.396 60.0807 164.082 61.1089 163.116C63.0414 161.293 65.9117 160.993 68.5583 160.788C68.3132 163.346 67.4043 165.796 65.9215 167.895C64.4388 169.994 62.4336 171.669 60.1045 172.755C58.9812 173.259 57.7531 173.65 56.8963 174.53C56.3013 175.149 55.9443 175.958 55.3969 176.615C54.5187 177.604 53.3539 178.294 52.0649 178.59C50.7771 178.879 49.4623 179.031 48.1426 179.043" fill="#EBEBEB"/>
<path d="M63.7412 163.996C63.7211 164.073 63.694 164.148 63.6602 164.22C63.5764 164.428 63.4777 164.63 63.3651 164.825C62.9581 165.545 62.4482 166.203 61.8514 166.776C60.9686 167.623 60.0129 168.391 58.9954 169.07C57.8673 169.856 56.6154 170.698 55.4016 171.707C53.3296 173.442 51.3915 175.331 49.604 177.358L47.9808 179.204L47.5381 179.68C47.4891 179.742 47.4332 179.798 47.3715 179.847C47.3715 179.847 47.4096 179.771 47.5 179.647L47.9046 179.119C48.2664 178.643 48.7948 178.01 49.4754 177.215C51.2292 175.147 53.1595 173.236 55.2446 171.503C56.4726 170.484 57.734 169.642 58.8669 168.866C59.8783 168.203 60.8335 167.458 61.7229 166.638C62.3175 166.081 62.839 165.451 63.2747 164.763C63.5888 164.287 63.7126 163.987 63.7412 163.996Z" fill="#E0E0E0"/>
<path d="M51.1367 191.885C51.2081 190.005 51.8031 188.03 53.3644 187.02C54.0355 186.582 54.8209 186.321 55.4159 185.788C55.9456 185.211 56.4028 184.571 56.7773 183.884C58.0339 182.013 60.0474 180.818 61.9895 179.685L64.2933 178.338C64.5112 178.173 64.7827 178.095 65.0549 178.119C65.18 178.158 65.2926 178.228 65.3813 178.325C65.47 178.421 65.5315 178.539 65.5595 178.667C65.6071 178.923 65.6071 179.186 65.5595 179.442C65.3726 181.005 65.0703 182.551 64.6551 184.069C64.2981 185.378 63.8221 186.716 62.8606 187.673C61.7848 188.744 60.2616 189.196 58.9526 189.962C57.8435 190.614 56.8677 191.514 55.6587 191.952C54.2307 192.461 52.6075 192.071 51.1272 191.866" fill="#EBEBEB"/>
<path d="M62.5559 182.308C62.445 182.521 62.3144 182.724 62.1656 182.913C61.8991 183.289 61.5087 183.836 61.0042 184.488C59.7293 186.241 58.1892 187.784 56.4393 189.062C55.4276 189.675 54.3837 190.233 53.312 190.733C52.36 191.209 51.4651 191.685 50.7559 192.085C50.1902 192.404 49.6507 192.767 49.1422 193.17C48.9648 193.331 48.7789 193.482 48.5853 193.623C48.5853 193.623 48.6186 193.565 48.7043 193.475C48.8194 193.338 48.9451 193.211 49.0804 193.094C49.5724 192.66 50.103 192.271 50.6654 191.933C51.3652 191.495 52.2362 191.028 53.2073 190.505C54.27 189.991 55.3059 189.424 56.3108 188.805C58.0348 187.536 59.5729 186.031 60.8804 184.336C61.3564 183.717 61.7801 183.203 62.099 182.808C62.2365 182.628 62.3894 182.461 62.5559 182.308Z" fill="#E0E0E0"/>
<path d="M35.0764 188.896C35.313 188.984 35.5422 189.09 35.7619 189.215C36.195 189.429 36.8091 189.772 37.5469 190.229C38.4101 190.77 39.2443 191.356 40.0459 191.985C42.0099 193.53 43.7694 195.318 45.2819 197.307C45.8965 198.118 46.4669 198.962 46.9907 199.834C47.4382 200.582 47.7714 201.2 47.976 201.638C48.1004 201.858 48.2025 202.089 48.2807 202.329C48.1342 202.126 48.0052 201.911 47.8951 201.686C47.6619 201.258 47.3049 200.658 46.8432 199.925C46.3814 199.192 45.796 198.349 45.101 197.445C44.3366 196.471 43.5215 195.539 42.6591 194.651C41.7875 193.772 40.869 192.941 39.9078 192.161C39.013 191.452 38.18 190.847 37.4564 190.376C36.7329 189.905 36.1379 189.538 35.719 189.296C35.4935 189.182 35.2784 189.048 35.0764 188.896Z" fill="#E0E0E0"/>
<path d="M181.527 173.764C180.709 173.197 180.409 172.088 180.375 171.065C180.342 170.041 180.528 169.013 180.399 167.999C180.349 167.168 180.383 166.334 180.499 165.51C180.618 163.901 181.527 163.658 182.184 162.178C182.841 160.698 181.861 160.345 182.208 159.731C182.379 159.427 182.86 159.531 183.16 159.688C183.452 159.867 183.705 160.104 183.903 160.383C184.959 161.711 185.873 163.335 185.726 165.053C185.589 165.897 185.401 166.731 185.164 167.552C184.888 168.871 184.988 170.308 184.345 171.479C183.75 172.564 182.627 173.197 181.561 173.773" fill="#EBEBEB"/>
<path d="M180.19 178.933C180.518 176.696 179.476 173.954 177.919 172.379C177.262 171.707 176.458 171.16 176.015 170.327C175.492 169.375 175.511 168.157 174.963 167.214C174.145 165.786 172.364 165.415 170.784 165.31C169.204 165.205 165.881 163.273 166.238 164.206C167.409 167.733 167.157 167.538 171.346 170.775C173.064 172.103 171.489 176.063 176.249 177.6C177.558 178.024 179.166 177.995 180.171 178.962" fill="#EBEBEB"/>
<path d="M179.385 201.729C179.368 201.756 179.352 201.785 179.338 201.814L179.385 201.729Z" fill="#455A64"/>
<path d="M185.773 195.569C183.287 196.571 181.222 198.4 179.928 200.748L179.371 201.729C179.609 201.372 180.133 201.343 180.566 201.286C181.385 201.18 182.146 200.803 182.727 200.215C183.055 199.81 183.418 199.434 183.812 199.092C184.211 198.852 184.632 198.651 185.069 198.492C186.021 198.049 186.797 197.288 187.73 196.816C188.712 196.406 189.735 196.1 190.781 195.903C191.843 195.695 192.81 195.153 193.542 194.356C191.214 194.456 188.391 194.579 185.773 195.569Z" fill="#EBEBEB"/>
<path d="M189.5 181.832C188.615 182.26 188.001 183.155 187.12 183.617C186.335 184.031 185.421 184.055 184.564 184.274C182.508 184.793 179.966 188.772 178.586 190.762C179.143 190.733 180.247 190.248 181.27 190.262C182.403 190.194 183.532 190.062 184.65 189.867C187.982 189.505 189.591 187.806 192.114 185.559C193.637 184.212 195.446 183.655 196.426 181.842C194.279 182.822 191.633 180.79 189.5 181.832Z" fill="#EBEBEB"/>
<path d="M180.18 180.847C181.351 177.286 184.417 174.554 187.653 172.902C189.27 172.086 191.036 171.607 192.843 171.494C194.651 171.381 196.463 171.637 198.168 172.245C196.231 174.911 194.26 175.244 191.147 176.015C190.609 176.149 189.267 175.73 188.291 176.463C187.901 176.753 187.815 177.934 185.55 178.367C183.284 178.8 181.437 179.271 180.18 180.847Z" fill="#EBEBEB"/>
<path d="M182.646 166.286C182.65 166.324 182.65 166.362 182.646 166.4C182.646 166.495 182.646 166.605 182.646 166.743C182.646 167.038 182.646 167.481 182.617 168.047C182.519 169.649 182.291 171.241 181.937 172.807C181.127 176.791 179.081 182.046 178.005 188.125C177.044 193.303 176.622 198.567 176.748 203.833C176.786 205.856 176.924 207.488 177.001 208.593C177.048 209.14 177.091 209.573 177.115 209.892C177.115 210.025 177.115 210.14 177.139 210.23C177.145 210.268 177.145 210.307 177.139 210.344C177.139 210.344 177.139 210.306 177.115 210.235C177.091 210.164 177.086 210.03 177.067 209.897C177.029 209.583 176.972 209.15 176.905 208.602C176.796 207.474 176.634 205.841 176.572 203.814C176.395 198.528 176.794 193.238 177.762 188.039C178.857 181.932 180.918 176.686 181.765 172.736C182.13 171.182 182.383 169.604 182.522 168.014C182.57 167.447 182.589 167.009 182.598 166.714C182.598 166.576 182.598 166.467 182.598 166.372C182.61 166.341 182.626 166.312 182.646 166.286Z" fill="#E0E0E0"/>
<path d="M194.779 172.693C194.529 172.738 194.276 172.765 194.022 172.774C193.337 172.831 192.656 172.923 191.98 173.05C189.746 173.437 187.61 174.264 185.697 175.482C183.827 176.767 182.172 178.34 180.794 180.142C180.266 180.832 179.871 181.418 179.609 181.832C179.483 182.053 179.34 182.263 179.181 182.46C179.198 182.396 179.225 182.335 179.262 182.279C179.319 182.165 179.4 181.989 179.523 181.78C179.867 181.179 180.244 180.597 180.652 180.037C182.006 178.184 183.665 176.575 185.559 175.277C188.103 173.687 191.019 172.789 194.018 172.674C194.265 172.674 194.456 172.674 194.584 172.674C194.65 172.669 194.716 172.675 194.779 172.693Z" fill="#E0E0E0"/>
<path d="M169.675 167.076C169.89 167.109 170.099 167.17 170.299 167.257C170.856 167.452 171.391 167.708 171.893 168.018C172.258 168.231 172.581 168.508 172.845 168.837C173.108 169.228 173.341 169.639 173.54 170.065C173.763 170.53 173.962 171.007 174.135 171.493C174.284 172.019 174.46 172.537 174.663 173.045C175.139 174.045 176.039 174.687 176.81 175.287C177.509 175.811 178.164 176.392 178.767 177.024C179.164 177.459 179.53 177.922 179.861 178.41C179.991 178.582 180.102 178.767 180.195 178.962C180.152 178.995 179.657 178.21 178.638 177.148C178.027 176.537 177.368 175.975 176.667 175.468C175.901 174.882 174.959 174.226 174.44 173.155C174.229 172.639 174.051 172.112 173.907 171.574C173.73 171.074 173.535 170.622 173.331 170.146C173.143 169.729 172.923 169.326 172.674 168.942C172.436 168.629 172.144 168.361 171.812 168.152C171.325 167.836 170.812 167.561 170.279 167.328C170.072 167.259 169.87 167.175 169.675 167.076Z" fill="#E0E0E0"/>
<path d="M191.866 183.565C191.708 183.723 191.536 183.867 191.352 183.993C191.014 184.255 190.514 184.626 189.876 185.055C189.124 185.562 188.327 186.002 187.496 186.368C186.544 186.778 185.488 187.097 184.393 187.477C182.527 188.156 180.785 189.137 179.238 190.381L177.81 191.495C177.643 191.641 177.463 191.771 177.272 191.885C177.414 191.711 177.574 191.551 177.748 191.409C178.067 191.124 178.533 190.714 179.128 190.229C180.662 188.928 182.416 187.913 184.307 187.23C185.416 186.844 186.483 186.535 187.406 186.145C188.225 185.793 189.013 185.374 189.762 184.893C190.41 184.488 190.919 184.136 191.276 183.903C191.461 183.77 191.658 183.657 191.866 183.565Z" fill="#E0E0E0"/>
<path d="M176.758 189.8C175.216 188.077 175.606 185.04 173.949 183.446C172.917 182.446 171.346 182.27 170.27 181.318C169.565 180.699 169.137 179.804 168.471 179.143C167.209 177.905 165.339 177.715 163.611 177.558C163.752 179.276 164.334 180.928 165.299 182.356C166.264 183.784 167.581 184.94 169.123 185.711C169.856 186.059 170.656 186.321 171.212 186.925C171.603 187.344 171.841 187.877 172.193 188.353C172.76 189.023 173.525 189.494 174.378 189.7C175.218 189.894 176.077 189.998 176.939 190.01" fill="#EBEBEB"/>
<path d="M166.752 179.747C167.108 180.398 167.553 180.996 168.076 181.523C168.658 182.079 169.285 182.587 169.951 183.041C170.694 183.569 171.527 184.15 172.331 184.845C173.697 186.037 174.953 187.348 176.087 188.763C176.525 189.3 176.863 189.748 177.091 190.057C177.219 190.215 177.332 190.384 177.429 190.562C177.276 190.43 177.139 190.282 177.02 190.119L175.953 188.872C174.786 187.504 173.522 186.221 172.169 185.035C171.374 184.345 170.556 183.769 169.818 183.227C169.148 182.757 168.522 182.229 167.947 181.646C167.569 181.247 167.249 180.797 166.995 180.309C166.927 180.176 166.866 180.039 166.814 179.899C166.787 179.852 166.766 179.801 166.752 179.747Z" fill="#E0E0E0"/>
<path d="M174.973 198.749C174.925 197.469 174.54 196.122 173.545 195.417C173.077 195.174 172.63 194.894 172.207 194.579C171.859 194.189 171.561 193.757 171.317 193.294C170.498 192.023 169.185 191.204 167.919 190.438L166.414 189.519C166.279 189.415 166.11 189.362 165.938 189.372C165.855 189.398 165.78 189.446 165.722 189.511C165.664 189.577 165.625 189.657 165.61 189.743C165.576 189.919 165.576 190.1 165.61 190.276C165.728 191.338 165.924 192.389 166.195 193.423C166.371 194.329 166.774 195.175 167.366 195.884C168.066 196.612 169.061 196.916 169.913 197.44C170.636 197.887 171.274 198.502 172.064 198.797C172.978 199.144 174.054 198.878 175.02 198.74" fill="#EBEBEB"/>
<path d="M167.523 192.209C167.924 192.645 168.296 193.106 168.637 193.589C169.484 194.728 170.482 195.746 171.603 196.617C172.258 197.041 172.935 197.43 173.631 197.783C174.268 198.13 174.84 198.454 175.301 198.759C175.671 198.99 176.016 199.26 176.329 199.563C176.452 199.667 176.557 199.791 176.639 199.93C176.186 199.557 175.709 199.215 175.211 198.906C174.735 198.625 174.173 198.321 173.526 197.987C172.815 197.64 172.127 197.249 171.465 196.816C170.32 195.937 169.321 194.884 168.504 193.694C168.18 193.251 167.933 192.88 167.766 192.623C167.667 192.497 167.585 192.357 167.523 192.209Z" fill="#E0E0E0"/>
<path d="M185.445 196.712C185.445 196.75 184.84 197.097 183.893 197.754C182.668 198.615 181.534 199.599 180.509 200.691C179.486 201.788 178.576 202.984 177.791 204.261C177.191 205.242 176.872 205.884 176.839 205.865C176.88 205.7 176.941 205.54 177.02 205.389C177.148 205.089 177.362 204.67 177.643 204.166C178.392 202.847 179.295 201.621 180.333 200.515C181.367 199.408 182.532 198.431 183.803 197.607C184.186 197.355 184.581 197.123 184.988 196.912C185.131 196.826 185.284 196.758 185.445 196.712Z" fill="#E0E0E0"/>
<path d="M223.287 209.012C223.287 209.078 176.591 209.135 119.005 209.135C61.4183 209.135 14.7132 209.078 14.7132 209.012C14.7132 208.945 61.3992 208.888 119.005 208.888C176.61 208.888 223.287 208.964 223.287 209.012Z" fill="#263238"/>
<path d="M200.153 184.388C200.718 184.658 201.224 185.039 201.638 185.508C202.053 185.978 202.369 186.526 202.567 187.12C202.956 188.312 203.065 189.578 202.886 190.819C202.614 193.199 201.248 195.641 199.782 197.559C197.759 195.798 197.297 192.718 197.159 191.143C196.94 188.653 198.059 184.003 200.153 184.388Z" fill="#345E37"/>
<path d="M202.133 201.524C201.995 200.838 202.041 200.127 202.266 199.464C202.49 198.802 202.887 198.21 203.414 197.749C203.949 197.3 204.569 196.961 205.237 196.753C205.904 196.544 206.606 196.471 207.303 196.536C207.626 196.531 207.945 196.598 208.24 196.73C208.534 196.863 208.796 197.058 209.007 197.302C209.163 197.56 209.249 197.855 209.254 198.157C209.259 198.459 209.183 198.757 209.035 199.02C208.729 199.545 208.289 199.978 207.76 200.277C206.008 201.377 204.114 202.119 202.133 201.524Z" fill="#345E37"/>
<path d="M199.539 208.883C199.547 208.722 199.571 208.563 199.611 208.407C199.672 208.06 199.758 207.612 199.853 207.074C200.081 205.589 200.547 204.15 201.234 202.814C201.944 201.478 202.999 200.357 204.29 199.568C204.681 199.336 205.098 199.151 205.532 199.016C205.651 198.978 205.771 198.948 205.894 198.925C205.936 198.917 205.98 198.917 206.022 198.925C205.441 199.122 204.881 199.379 204.352 199.692C203.106 200.5 202.086 201.61 201.386 202.919C200.702 204.239 200.221 205.654 199.958 207.117C199.834 207.674 199.734 208.126 199.658 208.44C199.631 208.591 199.591 208.739 199.539 208.883Z" fill="#263238"/>
<path d="M199.615 187.991C199.63 188.064 199.638 188.137 199.639 188.21C199.639 188.367 199.639 188.572 199.677 188.829C199.706 189.367 199.739 190.143 199.768 191.104C199.83 193.008 199.877 195.688 199.868 198.625C199.858 201.562 199.782 204.218 199.701 206.141C199.663 207.093 199.625 207.883 199.592 208.417C199.592 208.674 199.563 208.893 199.549 209.035C199.548 209.109 199.54 209.182 199.525 209.254C199.515 209.182 199.515 209.108 199.525 209.035C199.525 208.874 199.525 208.669 199.525 208.417C199.525 207.855 199.558 207.084 199.577 206.137C199.625 204.233 199.677 201.557 199.692 198.621C199.706 195.684 199.692 193.032 199.644 191.109C199.644 190.157 199.615 189.391 199.611 188.829C199.611 188.577 199.611 188.353 199.611 188.21C199.605 188.137 199.607 188.064 199.615 187.991Z" fill="#263238"/>
<path d="M198.635 202.985C198.39 201.531 197.803 200.155 196.921 198.972C196.04 197.79 194.889 196.834 193.565 196.183C192.889 195.86 192.009 195.65 191.452 196.15C190.895 196.65 191.019 197.578 191.29 198.259C191.884 199.708 192.895 200.949 194.193 201.825C195.492 202.701 197.021 203.173 198.587 203.181" fill="#345E37"/>
<path d="M193.894 198.459C194.042 198.509 194.186 198.573 194.322 198.649C194.486 198.725 194.645 198.811 194.798 198.906C194.979 199.02 195.198 199.13 195.412 199.292C195.654 199.457 195.888 199.635 196.112 199.825C196.373 200.038 196.622 200.266 196.859 200.505C197.403 201.062 197.883 201.678 198.287 202.343C198.686 203.011 199.006 203.724 199.239 204.466C199.337 204.791 199.417 205.122 199.477 205.456C199.533 205.745 199.573 206.038 199.596 206.332C199.621 206.574 199.632 206.817 199.63 207.06C199.64 207.242 199.64 207.425 199.63 207.607C199.625 207.767 199.608 207.926 199.577 208.083C199.539 208.083 199.606 207.412 199.487 206.351C199.456 206.063 199.41 205.777 199.349 205.494C199.292 205.185 199.197 204.861 199.101 204.542C198.637 203.08 197.838 201.747 196.769 200.648C196.521 200.401 196.293 200.172 196.041 199.963C195.821 199.772 195.593 199.593 195.355 199.425C194.484 198.773 193.875 198.492 193.894 198.459Z" fill="#263238"/>
<path d="M136.745 119.9C136.721 119.541 136.587 119.198 136.36 118.919C136.15 118.637 135.857 118.429 135.522 118.324C135.235 118.242 134.93 118.256 134.652 118.364C134.374 118.473 134.14 118.669 133.984 118.924C133.9 118.738 133.773 118.575 133.613 118.448C133.467 118.333 133.298 118.249 133.118 118.2C132.938 118.152 132.75 118.141 132.566 118.167C132.221 118.228 131.903 118.394 131.657 118.643C131.398 118.891 131.22 119.211 131.148 119.562C131.064 120.012 131.126 120.477 131.324 120.89C131.563 121.307 131.898 121.663 132.299 121.927C132.947 122.38 133.804 122.946 133.804 122.946C133.804 122.946 134.594 122.432 135.298 122.07C135.732 121.862 136.11 121.552 136.398 121.166C136.645 120.791 136.766 120.348 136.745 119.9Z" fill="#345E37"/>
<path d="M194.798 95.1096C194.772 94.7526 194.638 94.4121 194.413 94.1338C194.202 93.8511 193.907 93.6427 193.57 93.5388C193.285 93.4565 192.98 93.4701 192.703 93.5776C192.427 93.6851 192.193 93.8805 192.037 94.1338C191.948 93.95 191.819 93.7877 191.661 93.6578C191.515 93.5434 191.348 93.46 191.169 93.4125C190.989 93.365 190.802 93.3545 190.619 93.3817C190.274 93.4416 189.956 93.6081 189.71 93.8577C189.448 94.1026 189.269 94.4241 189.2 94.7764C189.115 95.2249 189.176 95.6892 189.377 96.0996C189.606 96.5166 189.933 96.8725 190.329 97.1373C190.981 97.5895 191.838 98.1607 191.838 98.1607C191.838 98.1607 192.628 97.6466 193.327 97.2801C193.761 97.0733 194.138 96.7646 194.427 96.3805C194.683 96.0071 194.813 95.5619 194.798 95.1096Z" fill="#345E37"/>
<path d="M185.193 60.0712L186.03 60.5472C186.058 60.5623 186.081 60.5847 186.098 60.6119C186.114 60.6391 186.122 60.6702 186.122 60.7019C186.122 60.7336 186.114 60.7647 186.098 60.7919C186.081 60.8191 186.058 60.8415 186.03 60.8566L185.197 61.3326C185.166 61.3454 185.141 61.3691 185.126 61.3992L184.674 62.237C184.659 62.2648 184.636 62.288 184.609 62.3042C184.582 62.3204 184.551 62.3289 184.519 62.3289C184.487 62.3289 184.456 62.3204 184.429 62.3042C184.402 62.288 184.379 62.2648 184.364 62.237L183.888 61.404C183.872 61.3736 183.847 61.3487 183.817 61.3326L182.979 60.8566C182.951 60.8415 182.928 60.8191 182.912 60.7919C182.896 60.7647 182.887 60.7336 182.887 60.7019C182.887 60.6702 182.896 60.6391 182.912 60.6119C182.928 60.5847 182.951 60.5623 182.979 60.5472L183.812 60.0712C183.84 60.0536 183.863 60.029 183.879 59.9998L184.355 59.162C184.37 59.1342 184.392 59.111 184.42 59.0948C184.447 59.0786 184.478 59.0701 184.509 59.0701C184.541 59.0701 184.572 59.0786 184.599 59.0948C184.627 59.111 184.649 59.1342 184.664 59.162L185.14 59.995C185.151 60.0243 185.169 60.0505 185.193 60.0712Z" fill="#345E37"/>
<path d="M134.46 94.8049L135.293 95.2809C135.321 95.2967 135.344 95.3196 135.36 95.3472C135.376 95.3748 135.385 95.4061 135.385 95.438C135.385 95.4699 135.376 95.5012 135.36 95.5288C135.344 95.5564 135.321 95.5793 135.293 95.5951L134.46 96.0711C134.43 96.0854 134.405 96.1087 134.389 96.1377L133.937 96.9755C133.922 97.0033 133.899 97.0265 133.872 97.0427C133.845 97.0589 133.814 97.0674 133.782 97.0674C133.75 97.0674 133.719 97.0589 133.692 97.0427C133.665 97.0265 133.643 97.0033 133.627 96.9755L133.151 96.1425C133.137 96.111 133.112 96.0857 133.08 96.0711L132.242 95.6189C132.214 95.6037 132.191 95.5814 132.175 95.5542C132.159 95.5269 132.15 95.4959 132.15 95.4642C132.15 95.4325 132.159 95.4014 132.175 95.3742C132.191 95.347 132.214 95.3246 132.242 95.3095L133.075 94.8335C133.104 94.8146 133.128 94.7904 133.147 94.7621L133.599 93.9243C133.614 93.8965 133.636 93.8733 133.664 93.8571C133.691 93.8409 133.722 93.8324 133.754 93.8324C133.785 93.8324 133.816 93.8409 133.844 93.8571C133.871 93.8733 133.893 93.8965 133.908 93.9243L134.384 94.7573C134.404 94.7812 134.43 94.798 134.46 94.8049Z" fill="#345E37"/>
<path d="M129.358 89.7165L129.796 89.9545C129.811 89.962 129.823 89.9735 129.832 89.9878C129.841 90.0021 129.846 90.0186 129.846 90.0354C129.846 90.0522 129.841 90.0687 129.832 90.083C129.823 90.0973 129.811 90.1088 129.796 90.1163L129.362 90.3543C129.346 90.3631 129.333 90.3763 129.324 90.3924L129.091 90.8256C129.084 90.8406 129.072 90.8533 129.058 90.8621C129.044 90.8709 129.027 90.8756 129.01 90.8756C128.993 90.8756 128.977 90.8709 128.963 90.8621C128.948 90.8533 128.937 90.8406 128.929 90.8256L128.687 90.3924C128.684 90.3848 128.679 90.3779 128.674 90.3722C128.668 90.3664 128.661 90.362 128.653 90.3591L128.215 90.1211C128.202 90.1125 128.19 90.1006 128.182 90.0865C128.174 90.0723 128.17 90.0564 128.17 90.0402C128.17 90.024 128.174 90.008 128.182 89.9939C128.19 89.9797 128.202 89.9678 128.215 89.9592L128.648 89.7212C128.663 89.7111 128.676 89.6982 128.687 89.6832L128.92 89.2452C128.928 89.2315 128.94 89.2201 128.954 89.2122C128.969 89.2043 128.985 89.2002 129.001 89.2002C129.017 89.2002 129.033 89.2043 129.047 89.2122C129.061 89.2201 129.073 89.2315 129.082 89.2452L129.324 89.6784C129.33 89.695 129.342 89.7087 129.358 89.7165Z" fill="#345E37"/>
<path d="M175.882 123.455L176.32 123.693C176.334 123.702 176.345 123.714 176.353 123.728C176.361 123.742 176.365 123.758 176.365 123.774C176.365 123.79 176.361 123.806 176.353 123.821C176.345 123.835 176.334 123.847 176.32 123.855L175.887 124.093C175.871 124.102 175.857 124.115 175.849 124.131L175.615 124.564C175.608 124.579 175.596 124.592 175.582 124.601C175.568 124.61 175.551 124.614 175.534 124.614C175.518 124.614 175.501 124.61 175.487 124.601C175.473 124.592 175.461 124.579 175.454 124.564L175.211 124.127C175.202 124.112 175.188 124.1 175.173 124.093L174.74 123.855C174.725 123.848 174.712 123.836 174.703 123.822C174.694 123.808 174.69 123.791 174.69 123.774C174.69 123.757 174.694 123.741 174.703 123.727C174.712 123.712 174.725 123.701 174.74 123.693L175.173 123.455C175.187 123.446 175.199 123.433 175.206 123.417L175.444 122.984C175.452 122.969 175.463 122.956 175.477 122.948C175.492 122.939 175.508 122.934 175.525 122.934C175.542 122.934 175.558 122.939 175.573 122.948C175.587 122.956 175.598 122.969 175.606 122.984L175.844 123.417C175.853 123.433 175.866 123.447 175.882 123.455Z" fill="#345E37"/>
<path d="M36.9614 33.2343C41.1177 33.2343 44.487 29.9545 44.487 25.9087C44.487 21.8629 41.1177 18.5831 36.9614 18.5831C32.8051 18.5831 29.4358 21.8629 29.4358 25.9087C29.4358 29.9545 32.8051 33.2343 36.9614 33.2343Z" fill="#345E37"/>
<path d="M35.8904 42.2878C35.8079 41.2826 35.7809 40.2735 35.8095 39.2652C35.7808 38.257 35.8078 37.2479 35.8904 36.2426C35.967 37.2482 35.9924 38.2571 35.9666 39.2652C35.9923 40.2734 35.9669 41.2822 35.8904 42.2878Z" fill="#345E37"/>
<path d="M31.554 34.5433C31.5921 34.5433 30.8829 35.8238 29.9737 37.3613C29.0646 38.8987 28.2934 40.1221 28.2554 40.103C28.2173 40.084 28.9265 38.8178 29.8357 37.2803C30.3622 36.3398 30.9357 35.4263 31.554 34.5433Z" fill="#345E37"/>
<path d="M27.1034 31.8444C26.5521 32.3755 25.9653 32.8685 25.347 33.32C24.7603 33.8088 24.14 34.2557 23.4906 34.6576C24.0345 34.1257 24.6151 33.6326 25.228 33.182C25.8223 32.6944 26.4489 32.2475 27.1034 31.8444Z" fill="#345E37"/>
<path d="M43.3969 39.3081C43.3062 39.0644 43.2393 38.8126 43.197 38.556C43.0875 38.08 42.9352 37.4612 42.721 36.7662C42.5068 36.0713 42.3307 35.443 42.1879 34.9908C42.1035 34.7576 42.0413 34.5169 42.0022 34.272C42.1328 34.4944 42.2382 34.7307 42.3164 34.9765C42.4878 35.4192 42.702 36.0427 42.8971 36.7424C43.0923 37.4422 43.2256 38.08 43.316 38.556C43.3702 38.803 43.3973 39.0552 43.3969 39.3081Z" fill="#345E37"/>
<path d="M51.0272 34.0388C50.2546 33.4825 49.5126 32.8851 48.8043 32.249C48.0637 31.652 47.3551 31.0164 46.6813 30.345C47.4564 30.9 48.2001 31.4975 48.909 32.1348C49.6501 32.7294 50.3573 33.365 51.0272 34.0388Z" fill="#345E37"/>
<path d="M53.9498 26.794C53.644 26.7772 53.3399 26.7359 53.0407 26.6703C52.4838 26.5798 51.7126 26.4608 50.8606 26.3656C50.0086 26.2704 49.2232 26.2133 48.6615 26.18C48.3553 26.1785 48.0498 26.153 47.7476 26.1038C48.0521 26.0646 48.3596 26.0535 48.6662 26.0705C49.2327 26.0705 50.0181 26.1181 50.8749 26.2133C51.7317 26.3085 52.5076 26.4418 53.0645 26.5608C53.3663 26.6106 53.6627 26.6887 53.9498 26.794Z" fill="#345E37"/>
<path d="M53.9594 19.6731C53.9594 19.7159 52.341 20.1491 50.3227 20.6251C48.3045 21.1011 46.648 21.4486 46.648 21.42C46.648 21.3915 48.2664 20.944 50.2894 20.468C52.3124 19.992 53.9498 19.6303 53.9594 19.6731Z" fill="#345E37"/>
<path d="M45.458 11.3716C45.4913 11.3954 44.7154 12.6092 43.7158 14.0753C42.7162 15.5414 41.8785 16.7171 41.8452 16.6933C41.8118 16.6695 42.5877 15.4605 43.5826 13.9896C44.5774 12.5188 45.4199 11.3526 45.458 11.3716Z" fill="#345E37"/>
<path d="M37.0185 9.63901C37.0434 9.97333 37.0434 10.309 37.0185 10.6434C37.0185 11.2669 37.0185 12.1237 37.0185 13.0662C37.0185 14.0087 37.0185 14.8702 37.0471 15.489C37.0721 15.8234 37.0721 16.1591 37.0471 16.4934C36.9802 16.1643 36.9451 15.8296 36.9424 15.4938C36.9043 14.875 36.871 14.0182 36.871 13.0662C36.871 12.1142 36.8995 11.2622 36.9376 10.6434C36.9375 10.3069 36.9646 9.97107 37.0185 9.63901Z" fill="#345E37"/>
<path d="M30.6306 17.3883C30.5925 17.3883 29.7976 16.2126 28.8599 14.7132C27.9222 13.2138 27.1891 11.9857 27.2224 11.9619C27.8572 12.8217 28.4482 13.7129 28.9932 14.6322C29.5849 15.5228 30.1314 16.4427 30.6306 17.3883Z" fill="#345E37"/>
<path d="M26.8131 20.5442C26.543 20.5302 26.2751 20.4888 26.0134 20.4204C25.5374 20.3204 24.852 20.1586 24.1094 19.9444C23.3668 19.7302 22.7242 19.516 22.2578 19.3399C22.0044 19.268 21.76 19.1674 21.5295 19.04C21.7933 19.0931 22.0527 19.1663 22.3054 19.259C22.7814 19.4065 23.4335 19.6064 24.1665 19.8159C24.8996 20.0253 25.5564 20.2014 26.0372 20.33C26.3021 20.3763 26.5619 20.448 26.8131 20.5442Z" fill="#345E37"/>
<path d="M25.1423 26.18C24.3561 26.3299 23.5612 26.43 22.7623 26.4799C21.9605 26.5834 21.1527 26.6343 20.3442 26.6322C21.1302 26.4796 21.9252 26.3779 22.7242 26.3276C23.5263 26.2269 24.334 26.1776 25.1423 26.18Z" fill="#345E37"/>
<path d="M90.7304 89.5689L69.6007 56.4441C69.2097 56.406 68.8152 56.4574 68.447 56.5944C68.0788 56.7314 67.7466 56.9503 67.4755 57.2347C67.2045 57.519 67.0017 57.8613 66.8825 58.2357C66.7633 58.61 66.7308 59.0065 66.7876 59.3953C63.2509 59.5666 60.2235 63.051 60.552 66.5781C59.1897 66.7062 57.8766 67.1527 56.7186 67.8816C55.5606 68.6105 54.5902 69.6013 53.8856 70.7743C53.181 71.9472 52.762 73.2693 52.6623 74.634C52.5627 75.9986 52.7852 77.3676 53.312 78.6304C52.8176 79.5449 52.5734 80.5737 52.6043 81.6128C52.6351 82.6519 52.9399 83.6644 53.4876 84.5479C54.0354 85.4314 54.8068 86.1546 55.7239 86.6443C56.6409 87.1339 57.6709 87.3727 58.7098 87.3365C58.2458 88.6154 58.2101 90.0105 58.6081 91.3115C59.0062 92.6125 59.8163 93.7489 60.9165 94.5493C62.0166 95.3497 63.3472 95.7708 64.7075 95.7491C66.0679 95.7273 67.3843 95.264 68.4583 94.4289C68.8856 95.2765 69.4979 96.0172 70.2501 96.5962C71.0023 97.1752 71.8751 97.5776 72.8039 97.7737C73.7326 97.9698 74.6936 97.9545 75.6156 97.729C76.5377 97.5035 77.3972 97.0735 78.1306 96.4709C79.1125 97.1958 80.3179 97.5524 81.5361 97.4785C82.7543 97.4045 83.9077 96.9047 84.7946 96.0663C85.4134 95.4475 85.8799 94.6383 86.6368 94.2147C87.3936 93.791 88.2409 93.7387 89.0168 93.4055C89.7063 93.0677 90.2555 92.4987 90.5687 91.7977C90.8818 91.0966 90.939 90.3079 90.7304 89.5689Z" fill="#263238"/>
<path d="M84.9993 86.5511C84.9993 87.1696 84.8159 87.7743 84.4723 88.2885C84.1286 88.8028 83.6402 89.2037 83.0688 89.4404C82.4973 89.6771 81.8685 89.739 81.2619 89.6183C80.6553 89.4977 80.098 89.1998 79.6607 88.7624C79.2233 88.3251 78.9255 87.7678 78.8048 87.1612C78.6841 86.5546 78.746 85.9258 78.9827 85.3543C79.2194 84.7829 79.6203 84.2945 80.1346 83.9508C80.6488 83.6072 81.2535 83.4238 81.872 83.4238C82.7014 83.4238 83.4969 83.7533 84.0834 84.3397C84.6698 84.9262 84.9993 85.7217 84.9993 86.5511Z" fill="#345E37"/>
<path d="M80.7487 87.8982C79.4436 89.9056 78.7152 92.2329 78.643 94.6262C78.5708 97.0194 79.1576 99.3865 80.3393 101.469C81.0242 99.408 81.5026 97.2841 81.7673 95.1286C81.9577 92.9628 81.8101 89.7879 80.7391 87.8982" fill="#345E37"/>
<path d="M73.9466 69.6007C73.1869 68.6246 72.794 67.4127 72.8366 66.1764C72.8793 64.9402 73.3547 63.7582 74.1799 62.8368C73.1707 61.6563 73.4516 59.7761 74.3893 58.5528C75.327 57.3294 76.7693 56.5821 78.1402 55.8824C78.7875 52.3124 88.7407 46.8384 92.2964 47.5762C92.4535 46.0387 96.7375 46.1958 97.3896 48.3092C97.7341 47.8358 98.208 47.4721 98.7544 47.2618C99.3008 47.0515 99.8964 47.0037 100.469 47.124C105.705 47.9332 105.082 51.2033 105.082 51.2033C105.082 51.2033 106.676 50.5655 108.319 52.3648C109.832 54.0165 109.228 55.1018 109.228 55.1018C109.82 55.5324 110.313 56.0857 110.673 56.7239C111.033 57.3621 111.251 58.0703 111.313 58.8003C111.408 60.0379 111.06 61.3659 111.622 62.4702C111.903 63.0272 112.393 63.4651 112.617 64.0458C113.264 65.7261 111.441 67.5301 111.85 69.2818C111.936 69.6388 112.112 69.9672 112.222 70.3195C112.451 71.0438 112.411 71.8267 112.108 72.5234C111.874 73.0565 111.484 73.5468 111.474 74.1275C111.519 74.5654 111.62 74.9958 111.774 75.4079C112.027 76.4551 109.894 80.6011 109.004 81.2056L81.7816 82.4099C80.7431 82.2143 79.7911 81.7005 79.0577 80.9398C78.3242 80.179 77.8455 79.2089 77.688 78.164C77.6896 77.8127 77.5887 77.4686 77.3976 77.1739C77.1823 76.9629 76.9242 76.8006 76.6408 76.6979C74.851 75.8173 74.5559 73.4182 74.6701 71.4286C74.706 71.1506 74.6915 70.8684 74.6273 70.5956C74.4708 70.2209 74.2391 69.8823 73.9466 69.6007Z" fill="#263238"/>
<path d="M81.753 69.3627C81.5007 64.5456 84.3282 58.8907 89.0358 56.3775C92.0013 54.7876 94.3527 54.6924 95.933 54.4735C98.1529 54.1798 100.41 54.57 102.402 55.5921C103.916 55.8919 109.594 60.7376 110.075 66.1926C110.603 72.252 111.027 79.6729 110.403 84.2187C109.18 93.3626 102.231 94.6907 102.231 94.6907L103.411 109.775L84.5138 103.111L81.753 69.3627Z" fill="#FFBF9D"/>
<path d="M97.442 83.3C97.4745 82.8666 97.6621 82.4593 97.9703 82.1528C98.2528 81.8678 98.6214 81.6839 99.019 81.6297C99.4166 81.5755 99.821 81.654 100.169 81.853C100.874 82.2623 101.021 83.0382 100.964 83.9283C100.631 84.4757 100.393 85.0088 99.7648 85.1136C99.6649 85.1136 99.5649 85.1421 99.465 85.1469C98.9683 85.1812 98.4765 85.0303 98.0846 84.7233C97.8761 84.5507 97.7098 84.3327 97.5984 84.0861C97.487 83.8394 97.4335 83.5705 97.442 83.3Z" fill="#FF9A6C"/>
<path d="M106.929 73.561C106.94 73.8657 106.832 74.1628 106.628 74.3888C106.423 74.6148 106.138 74.7517 105.834 74.7701C105.686 74.7851 105.536 74.7705 105.394 74.7269C105.251 74.6834 105.119 74.6119 105.005 74.5165C104.89 74.4212 104.796 74.304 104.728 74.1718C104.659 74.0396 104.618 73.8951 104.606 73.7467C104.594 73.442 104.702 73.1449 104.907 72.9189C105.111 72.693 105.396 72.5561 105.701 72.5376C105.849 72.5226 105.998 72.5373 106.141 72.5808C106.283 72.6244 106.415 72.6959 106.53 72.7912C106.644 72.8865 106.738 73.0037 106.807 73.1359C106.875 73.2681 106.917 73.4126 106.929 73.561Z" fill="#263238"/>
<path d="M108.052 69.7197C107.914 69.872 107.01 69.2437 105.753 69.277C104.496 69.3104 103.592 69.9625 103.454 69.8102C103.382 69.7435 103.525 69.4627 103.93 69.1628C104.464 68.7726 105.106 68.5565 105.767 68.544C106.421 68.5277 107.062 68.7194 107.6 69.0914C108 69.377 108.138 69.6483 108.052 69.7197Z" fill="#263238"/>
<path d="M100.955 79.8252C100.955 79.7538 101.726 79.5967 102.987 79.4063C103.311 79.3635 103.611 79.2921 103.659 79.0731C103.68 78.7388 103.596 78.4062 103.421 78.1211C103.102 77.3548 102.768 76.5456 102.411 75.703C101.012 72.252 99.9886 69.4151 100.127 69.3627C100.265 69.3104 101.517 72.0569 102.921 75.5031C103.26 76.3504 103.578 77.1628 103.873 77.9402C104.087 78.3203 104.157 78.7643 104.073 79.1921C104.027 79.3051 103.957 79.4064 103.867 79.4887C103.777 79.5711 103.67 79.6324 103.554 79.6681C103.377 79.7186 103.195 79.7474 103.011 79.7538C101.755 79.868 100.964 79.8966 100.955 79.8252Z" fill="#263238"/>
<path d="M102.231 94.6716C97.9304 94.8452 93.6663 93.8236 89.9117 91.7204C89.9117 91.7204 93.296 98.056 102.411 96.985L102.231 94.6716Z" fill="#FF9A6C"/>
<path d="M107.1 64.736C106.895 65.0502 105.929 64.8693 104.806 64.9883C103.682 65.1073 102.759 65.4262 102.507 65.1596C102.392 65.0264 102.507 64.7217 102.892 64.4028C103.415 64.0053 104.041 63.7673 104.696 63.7174C105.351 63.6437 106.013 63.7645 106.6 64.0648C107.043 64.2838 107.205 64.5599 107.1 64.736Z" fill="#263238"/>
<path d="M93.772 74.0942C93.788 74.3976 93.9208 74.6831 94.1427 74.8908C94.3645 75.0984 94.6582 75.2121 94.962 75.208C95.1109 75.2105 95.2588 75.1833 95.397 75.1279C95.5353 75.0726 95.661 74.9901 95.767 74.8855C95.873 74.7809 95.957 74.6561 96.0141 74.5186C96.0712 74.3811 96.1003 74.2336 96.0996 74.0846C96.0836 73.7808 95.95 73.4951 95.727 73.288C95.5039 73.081 95.2091 72.969 94.9049 72.9756C94.7568 72.9737 94.6098 73.0012 94.4724 73.0566C94.3351 73.1119 94.2101 73.194 94.1047 73.2981C93.9993 73.4022 93.9156 73.5261 93.8585 73.6628C93.8014 73.7994 93.772 73.9461 93.772 74.0942Z" fill="#263238"/>
<path d="M90.8827 70.6337C91.0398 70.7765 91.8823 70.0672 93.1342 69.991C94.3861 69.9149 95.3476 70.4909 95.4761 70.3243C95.538 70.2529 95.3761 69.9911 94.9573 69.7197C94.3843 69.3764 93.7194 69.2185 93.0533 69.2675C92.4002 69.3039 91.7761 69.5492 91.273 69.9673C90.916 70.2862 90.8065 70.567 90.8827 70.6337Z" fill="#263238"/>
<path d="M90.7113 65.688C90.9731 65.9593 91.9251 65.6023 93.0913 65.5166C94.2575 65.431 95.2524 65.5738 95.4713 65.2596C95.5618 65.1121 95.3904 64.836 94.943 64.5932C94.3335 64.2945 93.652 64.1741 92.9771 64.2457C92.3035 64.2934 91.6577 64.5329 91.1159 64.9359C90.7066 65.2739 90.5923 65.5738 90.7113 65.688Z" fill="#263238"/>
<path d="M83.4285 77.9593C83.4285 77.2786 82.586 75.703 81.9148 75.6126C80.1203 75.3794 76.8978 75.6126 76.9787 80.1441C77.093 86.3321 83.3048 84.9612 83.3095 84.7804C83.3143 84.5995 83.4904 80.3012 83.4285 77.9593Z" fill="#FFBF9D"/>
<path d="M81.5579 82.5432C81.5293 82.5432 81.4531 82.6241 81.2675 82.7098C81.0137 82.8256 80.7244 82.8358 80.4631 82.7383C79.8014 82.5098 79.2302 81.4817 79.1779 80.3583C79.1545 79.8255 79.2487 79.2941 79.4539 78.8018C79.5085 78.6068 79.6099 78.4282 79.7492 78.2813C79.8886 78.1345 80.0618 78.0239 80.2536 77.9593C80.3766 77.9225 80.5087 77.9305 80.6264 77.982C80.744 78.0334 80.8396 78.1248 80.8962 78.2401C80.9819 78.4162 80.9486 78.54 80.9819 78.5495C81.0152 78.559 81.1104 78.4448 81.0581 78.1878C81.0206 78.0341 80.9315 77.898 80.8058 77.8022C80.633 77.6761 80.4176 77.6231 80.206 77.6546C79.9514 77.7096 79.7153 77.8291 79.5202 78.0016C79.3252 78.1742 79.1778 78.394 79.0922 78.64C78.8354 79.1816 78.7176 79.7788 78.7495 80.3774C78.8113 81.6245 79.473 82.7859 80.3726 83.0287C80.54 83.0733 80.7152 83.0802 80.8856 83.0489C81.056 83.0177 81.2173 82.949 81.3579 82.8478C81.5483 82.6955 81.5817 82.5574 81.5579 82.5432Z" fill="#FF9A6C"/>
<path d="M111.451 66.2259C110.18 65.4738 109.351 64.4266 109.394 62.9462C108.566 63.2128 107.695 62.1656 107.19 61.4564C106.686 60.7471 106.086 60.3996 106.1 59.5524C106.121 59.3804 106.095 59.2059 106.024 59.0478C105.896 58.8146 105.596 58.7432 105.339 58.6718C104.671 58.4739 104.064 58.1118 103.573 57.6187C103.081 57.1256 102.721 56.5172 102.526 55.8491C101.202 56.4641 99.7465 56.7421 98.2893 56.6583C97.9782 57.1379 97.5501 57.5303 97.0453 57.7986C96.5405 58.0669 95.9757 58.2022 95.4042 58.1917C94.8326 58.1812 94.2732 58.0253 93.7786 57.7387C93.284 57.4521 92.8705 57.0442 92.5773 56.5536C92.3764 56.9366 92.0957 57.272 91.7541 57.5373C91.4125 57.8025 91.0179 57.9913 90.5971 58.091C89.7547 58.283 88.8889 58.3519 88.0267 58.2957C88.2072 59.1342 88.0794 60.0096 87.6668 60.7615C87.2541 61.5134 86.5842 62.0913 85.78 62.3893C85.561 62.4607 85.304 62.5369 85.2135 62.7463C85.1847 62.8631 85.1799 62.9845 85.1996 63.1032C85.2192 63.2218 85.2628 63.3353 85.3278 63.4365C85.4541 63.7909 85.5078 64.167 85.4857 64.5426C85.4637 64.9182 85.3662 65.2855 85.1992 65.6226C85.0322 65.9597 84.7991 66.2597 84.5137 66.5049C84.2283 66.75 83.8965 66.9352 83.538 67.0494C83.7796 67.2528 83.9719 67.5083 84.1006 67.7967C84.2292 68.0851 84.2908 68.3989 84.2807 68.7146C84.2706 69.0302 84.1892 69.3395 84.0424 69.6191C83.8956 69.8987 83.6874 70.1414 83.4333 70.329C83.2096 70.4718 82.9192 70.6432 82.9573 70.905C82.9817 71.003 83.0309 71.0931 83.1001 71.1668C83.6275 71.7301 83.984 72.4317 84.1283 73.1898C84.2044 73.9561 83.7094 74.832 82.943 74.8843C83.1635 75.0401 83.3501 75.239 83.4916 75.4688C83.6331 75.6987 83.7266 75.9549 83.7665 76.2219C83.7665 76.7645 83.2572 77.3262 82.7478 77.1453C82.5289 77.0692 79.4158 76.536 79.2826 76.3552C77.4642 74.0132 79.611 71.3238 79.711 68.3631C79.8678 65.3918 80.7136 62.4976 82.1814 59.9094C82.7537 58.8022 83.4709 57.7761 84.3139 56.8582C85.324 55.8702 86.4417 54.9984 87.6459 54.2592C89.1929 53.2454 90.7827 52.2315 92.5677 51.7602C95.8997 50.8844 99.4126 52.0173 102.564 53.3834C103.786 53.8593 104.937 54.4999 105.986 55.2874C107.174 56.3152 108.168 57.5468 108.923 58.924C110.169 60.8274 111.007 62.9685 111.384 65.212" fill="#263238"/>
<path d="M97.2087 82.129C97.3611 82.0291 97.9751 83.081 99.2888 83.2619C100.603 83.4428 101.631 82.7002 101.726 82.8383C101.778 82.8954 101.602 83.1858 101.145 83.4714C100.548 83.84 99.8399 83.9851 99.146 83.8807C98.4803 83.7838 97.8789 83.4301 97.4705 82.8954C97.1754 82.4908 97.1373 82.1671 97.2087 82.129Z" fill="#263238"/>
<path d="M67.8157 52.9502C67.8157 61.3231 73.661 74.9415 78.5829 75.7316L78.5353 75.3746C78.3068 70.0625 78.0973 64.6027 79.83 59.5762C81.7721 53.9498 86.8129 49.8753 92.2964 47.5667C84.0616 45.7864 72.6614 49.9181 67.8157 52.9502Z" fill="#345E37"/>
<path d="M89.1691 47.1716C88.21 47.4024 87.3333 47.8933 86.6354 48.5904C85.9375 49.2875 85.4455 50.1636 85.2135 51.1224C83.9571 51.3732 82.8342 52.0708 82.0527 53.086C81.2711 54.1012 80.8839 55.3653 80.9628 56.644C80.2876 56.8608 79.6714 57.2301 79.1617 57.7233C78.6521 58.2165 78.2628 58.8203 78.024 59.488C77.7852 60.1558 77.7032 60.8695 77.7844 61.574C77.8656 62.2785 78.1079 62.9549 78.4924 63.5508C77.8485 64.4184 77.4732 65.4558 77.4131 66.5346C77.3531 67.6133 77.6108 68.686 78.1544 69.6198C77.719 70.02 77.3827 70.5161 77.1723 71.0689C76.9618 71.6216 76.8831 72.2158 76.9422 72.8043C77.0013 73.3928 77.1967 73.9594 77.5129 74.4593C77.8291 74.9591 78.2573 75.3784 78.7637 75.684L80.939 75.7126L80.8629 66.6971L82.4051 61.404L85.68 55.6444L89.0501 52.5647L94.4432 49.028C93.8197 48.2636 92.9976 47.6859 92.0671 47.3584C91.1366 47.0309 90.1339 46.9662 89.1691 47.1716Z" fill="#263238"/>
<path d="M80.663 87.0223C80.087 85.78 77.2358 85.1897 75.0081 85.6895C72.7777 86.2527 70.8123 87.5736 69.4484 89.4261C68.1039 91.2703 67.1676 93.3798 66.7019 95.6141C72.3425 95.7093 77.9879 91.968 80.663 87.0033" fill="#345E37"/>
<path d="M83.3714 89.3547C83.3714 89.3547 83.2857 89.4356 83.0906 89.5308C82.8085 89.6555 82.5077 89.7327 82.2004 89.7593C81.6885 89.8189 81.1698 89.7516 80.69 89.5634C80.2102 89.3752 79.784 89.0718 79.4492 88.68C79.1143 88.2882 78.881 87.8201 78.7697 87.3168C78.6585 86.8136 78.6728 86.2907 78.8113 85.7942C78.8817 85.4944 79.0041 85.2092 79.1731 84.9517C79.2921 84.7756 79.3778 84.6899 79.392 84.6994C79.2166 85.0618 79.0794 85.4415 78.9827 85.8323C78.874 86.3002 78.8768 86.787 78.9908 87.2536C79.1049 87.7201 79.3269 88.1534 79.6391 88.5184C79.9513 88.8834 80.3449 89.1699 80.7881 89.3548C81.2314 89.5398 81.7119 89.618 82.1909 89.5832C82.591 89.5466 82.9865 89.47 83.3714 89.3547Z" fill="#263238"/>
<path d="M73.78 89.2452C75.2301 88.1461 76.9409 87.4424 78.7447 87.2032C78.7447 87.2794 77.5928 87.565 76.2219 88.1552C74.851 88.7454 73.78 89.3119 73.78 89.2452Z" fill="#263238"/>
<path d="M80.3583 95.2762C80.293 94.303 80.293 93.3266 80.3583 92.3535C80.3472 91.3786 80.3981 90.4041 80.5107 89.4356C80.6426 90.4056 80.6745 91.3866 80.6059 92.363C80.6232 93.34 80.5403 94.3161 80.3583 95.2762Z" fill="#263238"/>
<path d="M75.7554 52.9788C75.6596 53.2885 75.5451 53.5921 75.4127 53.888C75.0934 54.7041 74.8232 55.5386 74.6035 56.387C73.8561 59.186 73.6906 62.1085 74.1172 64.9739C74.5437 67.8394 75.5533 70.587 77.0834 73.047C77.5435 73.7952 78.0457 74.5167 78.5876 75.208C78.8 75.4522 78.9987 75.708 79.1826 75.9744C79.1159 75.9244 79.0552 75.8669 79.0017 75.803C78.8875 75.684 78.7161 75.5126 78.5257 75.2699C77.9497 74.6003 77.4216 73.8908 76.9454 73.1469C75.3568 70.6828 74.3117 67.9083 73.88 65.0084C73.4483 62.1085 73.6397 59.1499 74.4416 56.3298C74.6824 55.4795 74.9798 54.6462 75.3318 53.8356C75.4555 53.5452 75.5698 53.331 75.6412 53.1835C75.674 53.1125 75.7122 53.044 75.7554 52.9788Z" fill="#263238"/>
<path d="M69.734 221.845H79.5729L79.8585 209.378C79.8585 209.378 75.3889 208.574 72.9851 211.725C70.5813 214.876 69.734 221.845 69.734 221.845Z" fill="#345E37"/>
<path d="M66.5067 182.003C66.5067 189.315 67.3683 206.941 89.9402 208.659H79.6205L79.1826 223.891C79.1826 223.891 142.719 225.443 144.699 225.472C148.507 225.534 157.656 220.912 159.374 209.516C161.093 198.121 151.635 194.475 148.84 192.304C146.046 190.133 114.659 179.19 102.621 177.043L67.3683 180.48L66.5067 182.003Z" fill="#263238"/>
<path d="M158.67 139.625C157.878 138.543 156.874 137.634 155.719 136.952C154.565 136.271 153.283 135.831 151.953 135.66C146.846 134.919 141.642 136.026 137.278 138.783C130.3 143.262 103.344 178.438 103.344 178.438L149.126 196.088C149.126 196.088 160.412 161.364 161.721 155.509C162.825 150.606 162.573 144.98 158.67 139.625Z" fill="#263238"/>
<path d="M126.868 183.912C126.884 183.772 126.913 183.633 126.954 183.498C127.025 183.208 127.125 182.813 127.244 182.318C127.363 181.822 127.535 181.18 127.754 180.456C127.973 179.733 128.187 178.914 128.487 178.019C128.787 177.124 129.091 176.115 129.477 175.087C129.862 174.059 130.276 172.936 130.729 171.755C131.681 169.442 132.799 166.933 134.123 164.368C135.446 161.802 136.864 159.446 138.216 157.342C138.906 156.299 139.563 155.309 140.22 154.414C140.877 153.52 141.491 152.682 142.067 151.934C142.643 151.187 143.19 150.506 143.662 149.945C144.133 149.383 144.561 148.874 144.913 148.479L145.723 147.574C145.815 147.467 145.914 147.365 146.018 147.27C145.943 147.39 145.857 147.504 145.761 147.608L144.985 148.56C144.647 148.959 144.228 149.454 143.771 150.045C143.314 150.635 142.757 151.292 142.205 152.053C141.653 152.815 141.015 153.629 140.387 154.548C139.758 155.466 139.092 156.452 138.411 157.48C137.069 159.584 135.67 161.94 134.341 164.496C133.013 167.052 131.895 169.551 130.943 171.855C130.467 173.016 130.034 174.111 129.667 175.158C129.301 176.206 128.948 177.177 128.653 178.072C128.358 178.966 128.106 179.78 127.882 180.499C127.658 181.218 127.482 181.832 127.34 182.341C127.197 182.851 127.082 183.222 127.002 183.508C126.965 183.645 126.921 183.78 126.868 183.912Z" fill="#455A64"/>
<path d="M72.0569 155.98C72.0569 155.98 70.5908 131.462 70.1529 125.388C69.715 119.314 69.3342 107.576 74.3607 102.34C79.3873 97.104 82.8859 96.2615 82.8859 96.2615L103.354 105.377C103.354 105.377 114.973 121.851 114.973 129.177C114.973 136.503 107.386 158.508 107.386 158.508L72.0569 155.98Z" fill="#455A64"/>
<path d="M96.5328 122.941L96.4233 122.027L114.987 122.637C114.987 122.637 117.034 129.377 114.131 140.301C112.969 144.671 108.752 161.007 108.752 161.007L110.908 174.278L126.064 183.774C126.064 183.774 115.73 184.726 109.651 191.628C103.573 198.53 99.1794 210.064 99.1794 210.064C99.1794 210.064 65.5833 210.24 66.026 188.772C66.0243 185.517 66.5055 182.28 67.454 179.166L72.4758 163.744L73.085 156.066C73.085 156.066 83.895 154.895 85.2611 150.963C86.6272 147.032 96.5328 122.941 96.5328 122.941Z" fill="#345E37"/>
<path d="M152.015 194.394C151.921 194.364 151.828 194.328 151.739 194.284L150.982 193.932C150.321 193.623 149.364 193.18 148.169 192.661C145.789 191.609 142.457 190.281 138.735 188.853C135.013 187.425 131.628 186.23 129.172 185.359L126.269 184.321L125.478 184.031C125.385 184.002 125.296 183.962 125.212 183.912C125.31 183.923 125.406 183.947 125.497 183.984L126.297 184.231C126.992 184.45 127.996 184.774 129.229 185.183C131.7 186.016 135.103 187.201 138.825 188.61C142.548 190.019 145.875 191.4 148.241 192.49C149.431 193.032 150.373 193.499 151.021 193.837C151.325 193.994 151.573 194.127 151.763 194.232C151.854 194.275 151.939 194.329 152.015 194.394Z" fill="#455A64"/>
<path d="M133.932 212.296C133.932 212.363 126.164 211.772 116.596 210.973C107.029 210.173 99.2698 209.469 99.2793 209.402C99.2889 209.335 107.043 209.926 116.615 210.725C126.188 211.525 133.937 212.206 133.932 212.296Z" fill="#455A64"/>
<path d="M87.4793 186.14C87.5173 186.054 87.567 185.974 87.6268 185.902L88.1028 185.254C88.3075 184.969 88.5788 184.636 88.874 184.245C89.1691 183.855 89.5308 183.417 89.9354 182.941C93.0857 178.922 97.5376 176.127 102.526 175.035C103.953 174.717 105.4 174.498 106.857 174.378L108.538 174.268H109.808H110.613C110.705 174.257 110.797 174.257 110.889 174.268C110.799 174.29 110.706 174.302 110.613 174.302L109.813 174.345L108.547 174.397L106.876 174.544C105.435 174.688 104.004 174.923 102.592 175.249C100.861 175.661 99.1805 176.261 97.58 177.039C94.7101 178.535 92.1614 180.579 90.0782 183.055C89.6689 183.531 89.3024 183.945 88.993 184.331C88.6836 184.717 88.4027 185.04 88.1885 185.312L87.684 185.935C87.6227 186.01 87.5541 186.079 87.4793 186.14Z" fill="#263238"/>
<path d="M72.9137 164.087C72.9708 164.144 72.471 164.791 71.419 165.834C69.9215 167.296 68.2949 168.62 66.5591 169.789C66.0117 170.165 65.4214 170.537 64.8026 170.913C64.4932 171.098 64.1696 171.284 63.8506 171.469C63.4977 171.682 63.1246 171.859 62.7368 171.998C62.5059 172.073 62.2656 172.117 62.0228 172.126C61.7469 172.139 61.4719 172.088 61.2184 171.979C60.952 171.865 60.7169 171.689 60.5329 171.465C60.3224 171.205 60.2095 170.88 60.214 170.546C60.2302 170.231 60.3396 169.928 60.5282 169.675C60.6688 169.476 60.8282 169.291 61.0042 169.123L61.9562 168.233C63.2771 166.915 64.7523 165.761 66.3496 164.796C68.1422 163.719 70.2231 163.22 72.3092 163.368H72.4044L72.1664 164.582C68.5075 163.577 64.9518 162.229 61.5468 160.555C61.3516 160.46 61.1565 160.364 60.9661 160.264C60.7757 160.164 60.5805 160.079 60.3568 159.941C60.0901 159.782 59.8701 159.555 59.719 159.284C59.6393 159.129 59.5915 158.959 59.5784 158.785C59.5653 158.611 59.5872 158.436 59.6428 158.27C59.7307 157.982 59.8952 157.724 60.1188 157.523C60.3306 157.345 60.577 157.214 60.8423 157.137C61.2718 157.022 61.717 156.977 62.1608 157.004C63.6522 157.018 65.1266 157.322 66.502 157.899C68.4857 158.704 70.2086 160.042 71.4809 161.764C72.352 162.987 72.59 163.792 72.5329 163.815C72.4758 163.839 72.0569 163.144 71.1049 162.068C69.7615 160.56 68.0634 159.41 66.164 158.722C64.8797 158.244 63.5166 158.013 62.1466 158.042C61.8078 158.027 61.4689 158.065 61.1422 158.156C61.0207 158.191 60.9085 158.253 60.8138 158.337C60.7357 158.407 60.6781 158.498 60.6472 158.598C60.6344 158.628 60.6279 158.659 60.6279 158.691C60.6279 158.723 60.6344 158.755 60.6472 158.784C60.7141 158.875 60.8003 158.95 60.8994 159.003C61.0327 159.084 61.2231 159.17 61.4183 159.265L61.9942 159.536C65.368 161.12 68.8715 162.412 72.4662 163.397L72.233 164.61H72.1521C70.3198 164.49 68.494 164.928 66.9161 165.867C65.3939 166.77 63.9819 167.846 62.7082 169.075L61.7562 169.946C61.4516 170.213 61.2802 170.465 61.2802 170.598C61.2802 170.732 61.3897 170.913 61.623 171.017C61.7328 171.07 61.8534 171.096 61.9752 171.093C62.122 171.091 62.2677 171.069 62.4084 171.027C62.739 170.918 63.0579 170.776 63.3604 170.603C63.684 170.432 64.003 170.265 64.3124 170.094C64.9359 169.751 65.5214 169.408 66.0736 169.066C67.8197 167.978 69.4954 166.781 71.0906 165.481C72.233 164.553 72.8518 164.02 72.9137 164.087Z" fill="#345E37"/>
<path d="M80.3012 97.3563C80.3012 97.3182 80.3916 97.2468 80.6058 97.1468C80.7373 97.0811 80.8743 97.0269 81.0152 96.985L81.6007 96.847C82.8836 96.6884 84.1852 96.8947 85.3563 97.442C87.0629 98.2242 88.6154 99.3059 89.9402 100.636C91.5545 102.22 92.991 103.976 94.2242 105.872C96.4695 109.295 98.209 113.024 99.3888 116.944C100.269 119.957 100.446 121.894 100.293 121.923C100.141 121.951 99.6316 120.104 98.5558 117.225C97.1654 113.48 95.3647 109.901 93.1865 106.553C90.6399 102.668 87.6459 99.5697 84.9803 98.2178C83.9554 97.6604 82.8143 97.3507 81.6483 97.3134H81.0914C80.9295 97.3134 80.7962 97.3468 80.682 97.3515C80.444 97.4086 80.3155 97.3991 80.3012 97.3563Z" fill="#345E37"/>
<path d="M109.999 168.832H109.866L109.47 168.809C109.123 168.809 108.609 168.737 107.947 168.723C106.086 168.641 104.221 168.679 102.364 168.837C99.608 169.071 96.8799 169.56 94.2147 170.299C92.7153 170.722 91.154 171.222 89.5737 171.841C87.9934 172.46 86.3892 173.178 84.7851 173.992C77.6311 177.706 71.5479 183.191 67.116 189.924C66.74 190.471 66.4829 190.914 66.2925 191.204L66.0736 191.538C66.0507 191.577 66.0236 191.614 65.9926 191.647L66.0545 191.523L66.2497 191.181C66.4306 190.881 66.6686 190.429 67.0351 189.872C68.0317 188.29 69.1304 186.774 70.3242 185.335C74.2768 180.562 79.1536 176.638 84.6614 173.797C86.275 172.974 87.8886 172.26 89.4785 171.636C91.0083 171.047 92.5668 170.536 94.148 170.103C96.8267 169.366 99.5699 168.888 102.34 168.675C104.206 168.534 106.08 168.523 107.947 168.642C108.609 168.671 109.118 168.747 109.466 168.775L109.856 168.818L109.999 168.832Z" fill="white"/>
<path d="M109.142 163.568C109.011 163.588 108.879 163.6 108.747 163.606L107.609 163.668C107.133 163.692 106.51 163.725 105.81 163.773C105.11 163.82 104.311 163.863 103.43 163.944C101.664 164.072 99.5697 164.287 97.242 164.558C94.9144 164.829 92.3773 165.215 89.7213 165.681C87.0652 166.148 84.5471 166.676 82.2671 167.2C79.9871 167.723 77.9498 168.252 76.2457 168.728C75.3889 168.956 74.6273 169.204 73.9514 169.385C73.2755 169.565 72.6947 169.756 72.2235 169.903L71.1335 170.227C71.0085 170.273 70.8794 170.307 70.7479 170.327C70.8655 170.267 70.9882 170.218 71.1144 170.18L72.1949 169.808C72.6709 169.646 73.2374 169.456 73.9085 169.251C74.5797 169.047 75.3365 168.799 76.1981 168.561C77.8974 168.057 79.9347 167.523 82.2147 166.976C84.4948 166.429 87.0176 165.91 89.6784 165.434C92.3392 164.958 94.9144 164.61 97.2135 164.334C99.5126 164.058 101.645 163.858 103.401 163.768C104.287 163.701 105.087 163.668 105.781 163.635C106.476 163.601 107.09 163.582 107.586 163.573H108.728C108.865 163.557 109.004 163.556 109.142 163.568Z" fill="white"/>
<path d="M108.928 159.155C108.928 159.227 100.807 159.503 90.7875 159.779C80.7677 160.055 72.6376 160.222 72.6328 160.15C72.6281 160.079 80.7534 159.803 90.778 159.531C100.803 159.26 108.928 159.089 108.928 159.155Z" fill="white"/>
<path d="M110.018 151.197C110.018 151.263 104.211 151.673 97.0469 152.087C89.8831 152.501 84.0664 152.791 84.0616 152.725C84.0569 152.658 89.8641 152.249 97.0326 151.839C104.201 151.43 110.013 151.13 110.018 151.197Z" fill="white"/>
<path d="M115.739 127.982C115.739 128.049 111.408 128.039 106.067 127.958C100.726 127.877 96.3948 127.754 96.3948 127.682C96.3948 127.611 100.726 127.625 106.072 127.711C111.417 127.796 115.744 127.911 115.739 127.982Z" fill="white"/>
<path d="M115.006 134.394C114.742 134.433 114.474 134.448 114.207 134.441C113.693 134.441 112.95 134.465 112.031 134.465C110.189 134.465 107.647 134.413 104.849 134.256C102.05 134.099 99.5078 133.88 97.68 133.68C96.766 133.58 96.0282 133.489 95.5189 133.418C95.2503 133.397 94.9842 133.35 94.724 133.28C94.9911 133.271 95.2586 133.284 95.5237 133.318L97.6942 133.504C99.5268 133.656 102.054 133.851 104.834 133.98C107.614 134.108 110.17 134.218 112.008 134.261L114.183 134.318C114.459 134.322 114.734 134.347 115.006 134.394Z" fill="white"/>
<path d="M114.083 140.896C114.083 140.967 108.847 140.853 102.378 140.644C95.9093 140.434 90.6828 140.206 90.6828 140.139C90.6828 140.073 95.9188 140.187 102.388 140.396C108.856 140.606 114.083 140.806 114.083 140.896Z" fill="white"/>
<path d="M94.0862 178.648C93.9996 178.719 93.9072 178.782 93.8101 178.838L93.0056 179.347C92.6534 179.566 92.225 179.823 91.7395 180.166C91.254 180.509 90.6875 180.856 90.0878 181.294L89.1358 181.97L88.1362 182.736C87.4364 183.255 86.7082 183.86 85.9751 184.479C84.49 185.754 82.9097 187.216 81.3532 188.848C79.9027 190.396 78.5316 192.017 77.2453 193.703C76.6741 194.498 76.1076 195.236 75.6364 195.969L74.9414 197.016C74.7272 197.359 74.5273 197.688 74.3322 198.006C73.9323 198.63 73.6134 199.22 73.323 199.73C73.0327 200.239 72.7947 200.682 72.609 201.058C72.4234 201.434 72.2758 201.686 72.1664 201.9C72.119 202.002 72.0616 202.1 71.995 202.191C72.0236 202.083 72.0652 201.979 72.1188 201.881L72.5234 201.015C72.6947 200.634 72.9184 200.182 73.204 199.663C73.4896 199.144 73.7895 198.544 74.1798 197.916L74.7796 196.916C74.9938 196.569 75.227 196.221 75.465 195.855C75.941 195.117 76.4932 194.37 77.0644 193.57C78.3436 191.866 79.7149 190.232 81.1723 188.677C82.6471 187.139 84.2009 185.679 85.8276 184.302C86.5892 183.688 87.3032 183.089 88.0124 182.575C88.3599 182.313 88.6931 182.056 89.0215 181.818L89.9735 181.151C90.578 180.718 91.154 180.371 91.649 180.052C92.1441 179.733 92.601 179.471 92.939 179.266L93.772 178.79C93.8704 178.73 93.9759 178.682 94.0862 178.648Z" fill="white"/>
<path d="M113.383 176.068C113.351 176.092 113.316 176.111 113.278 176.125L112.955 176.258L111.712 176.734L110.818 177.086L109.77 177.562C109.023 177.91 108.157 178.272 107.252 178.776L105.824 179.533C105.348 179.799 104.829 180.118 104.306 180.423C103.244 181.023 102.178 181.775 101.041 182.532C96.1621 185.946 91.8835 190.146 88.3789 194.96C87.603 196.088 86.8319 197.135 86.2179 198.192C85.9037 198.711 85.58 199.206 85.304 199.696L84.5281 201.124C84.014 202.024 83.6427 202.885 83.2905 203.628L82.8145 204.666L82.4527 205.565L81.9482 206.798L81.8101 207.117C81.7955 207.156 81.7763 207.193 81.753 207.227C81.7616 207.188 81.7727 207.15 81.7863 207.112C81.8149 207.022 81.8529 206.917 81.9005 206.784L82.3765 205.527L82.7193 204.623C82.8526 204.294 83.0192 203.947 83.1953 203.571C83.538 202.819 83.8998 201.948 84.4091 201.043L85.1707 199.615C85.4467 199.139 85.7657 198.625 86.0751 198.097C86.6844 197.035 87.4507 195.974 88.2266 194.841C91.7196 189.994 96.0088 185.774 100.912 182.36C102.059 181.604 103.135 180.851 104.206 180.261C104.734 179.957 105.234 179.642 105.739 179.376L107.19 178.633C108.104 178.157 108.98 177.786 109.732 177.453C110.113 177.286 110.461 177.129 110.789 176.977L111.698 176.644L112.96 176.191L113.288 176.12L113.383 176.068Z" fill="white"/>
<path d="M120.247 180.209C120.121 180.276 119.991 180.335 119.857 180.385L118.724 180.861L117.905 181.18C117.61 181.304 117.296 181.461 116.953 181.613C116.277 181.937 115.487 182.26 114.664 182.727L113.359 183.427C112.883 183.669 112.46 183.969 111.984 184.255C111.032 184.812 110.08 185.511 109.037 186.225C106.864 187.839 104.83 189.634 102.959 191.59C101.117 193.575 99.4421 195.708 97.9513 197.968C97.2944 199.025 96.6518 200.025 96.1473 201.015C95.8902 201.491 95.6094 201.967 95.3904 202.443L94.7621 203.728C94.3337 204.571 94.0481 205.38 93.7577 206.07C93.6197 206.422 93.4817 206.741 93.3722 207.022L93.0866 207.855C92.92 208.331 92.7867 208.721 92.6867 209.007C92.6461 209.143 92.5935 209.275 92.5297 209.402C92.5542 209.263 92.5909 209.126 92.6391 208.993C92.7248 208.702 92.8438 208.317 92.9961 207.826L93.2579 206.984C93.3627 206.679 93.4959 206.356 93.6292 206.003C93.9101 205.304 94.1814 204.49 94.5812 203.623L95.2 202.271C95.4142 201.795 95.676 201.319 95.9473 200.843C96.4233 199.849 97.085 198.839 97.7419 197.768C99.2306 195.491 100.909 193.343 102.759 191.347C104.642 189.381 106.691 187.581 108.885 185.968C109.918 185.254 110.884 184.54 111.855 184.007C112.331 183.726 112.783 183.427 113.245 183.189L114.564 182.498C115.397 182.022 116.196 181.727 116.882 181.413C117.225 181.266 117.543 181.118 117.834 180.999L118.662 180.699L119.814 180.29C119.956 180.251 120.101 180.224 120.247 180.209Z" fill="white"/>
<g opacity="0.3">
<path d="M76.7455 129.996C76.7455 129.996 87.7458 162.245 91.5586 164.563C95.3714 166.881 108.895 162.035 108.895 162.035L109.628 157.518L84.9755 127.682L76.7455 129.996Z" fill="black"/>
</g>
<path d="M70.2481 223.511L67.6539 222.363C67.6539 222.363 46.1434 230.931 42.9019 228.318L71.7142 196.793L81.4674 210.782C74.9938 213.453 72.9851 216.104 70.2481 223.511Z" fill="#263238"/>
<g opacity="0.6">
<path d="M75.684 207.06C75.8666 206.666 75.8986 206.219 75.774 205.804C75.6495 205.388 75.377 205.032 75.0081 204.804C74.6279 204.6 74.1836 204.55 73.7677 204.665C73.3518 204.78 72.9965 205.052 72.7757 205.423C72.3711 206.179 72.709 207.46 73.5039 207.803C74.2989 208.145 75.546 207.736 75.7507 206.903" fill="white"/>
</g>
<g opacity="0.6">
<path d="M71.7285 196.793L73.68 199.553L45.696 228.561C45.696 228.561 43.792 229.394 42.9352 228.318L71.7285 196.793Z" fill="white"/>
</g>
<path d="M66.383 222.668C66.2307 222.52 66.859 221.687 67.0541 220.469C67.2493 219.25 66.9542 218.251 67.1446 218.165C67.335 218.079 68.0299 219.117 67.7777 220.602C67.5254 222.087 66.4972 222.835 66.383 222.668Z" fill="#455A64"/>
<path d="M62.5893 223.944C62.4084 223.844 62.7511 222.935 62.5655 221.806C62.3798 220.678 61.8229 219.902 61.9657 219.741C62.1085 219.579 63.0891 220.302 63.289 221.711C63.4889 223.12 62.7416 224.077 62.5893 223.944Z" fill="#455A64"/>
<path d="M57.0629 222.03C57.1581 221.859 58.1386 222.359 58.6337 223.539C59.1287 224.72 58.8098 225.748 58.6337 225.695C58.4576 225.643 58.3957 224.777 57.972 223.815C57.5484 222.854 56.9391 222.197 57.0629 222.03Z" fill="#455A64"/>
<path d="M165.058 74.1608C163.739 73.285 163.249 71.5714 163.201 69.9863C163.154 68.4012 163.439 66.8114 163.235 65.2263C163.068 63.9649 163.301 62.6416 163.401 61.3707C163.592 58.8764 165.067 58.5147 166.124 56.2394C167.181 53.9641 165.596 53.3834 166.162 52.4314C166.438 51.9554 167.219 52.1268 167.704 52.3695C168.176 52.6416 168.584 53.0097 168.904 53.45C170.613 55.5016 172.093 58.0149 171.855 60.6757C171.731 61.999 171.193 63.2414 170.903 64.5408C170.46 66.5734 170.617 68.8248 169.58 70.6098C168.628 72.2949 166.8 73.2754 165.077 74.1703" fill="#455A64"/>
<path d="M162.901 82.1671C163.43 78.7018 161.745 74.4607 159.227 72.0188C158.161 70.9811 156.847 70.1148 156.128 68.8439C155.285 67.354 155.309 65.4833 154.424 64.022C153.101 61.8324 150.221 61.2374 147.669 61.0898C145.118 60.9423 139.735 57.9387 140.315 59.381C142.219 64.8455 141.8 64.5361 148.574 69.5484C151.354 71.6047 148.812 77.7403 156.509 80.1203C158.627 80.7772 161.226 80.7296 162.849 82.229" fill="#455A64"/>
<path d="M171.926 107.923C167.979 109.474 164.661 112.297 162.497 115.944L161.592 117.458C161.978 116.906 162.83 116.858 163.53 116.777C164.843 116.615 166.069 116.032 167.024 115.116C167.56 114.487 168.147 113.904 168.78 113.374C169.421 112.995 170.095 112.676 170.794 112.422C172.322 111.741 173.583 110.565 175.078 109.837C176.572 109.109 178.352 108.837 180.018 108.409C181.684 107.981 183.379 107.338 184.479 106.029C180.304 106.234 175.844 106.419 171.926 107.923Z" fill="#455A64"/>
<path d="M177.962 86.632C176.534 87.2984 175.53 88.6836 174.121 89.3976C172.845 90.0402 171.365 90.0782 169.98 90.4162C166.648 91.2206 162.544 97.3801 160.307 100.465C161.207 100.417 162.997 99.6649 164.648 99.6887C166.3 99.7125 168.48 99.246 170.122 99.0746C175.52 98.513 178.114 95.8854 182.199 92.4106C184.655 90.321 187.611 89.4785 189.167 86.651C185.688 88.1885 181.413 85.0374 177.962 86.632Z" fill="#455A64"/>
<path d="M162.882 85.1326C164.786 79.6205 169.737 75.3841 174.973 72.8328C180.289 70.2764 186.397 69.9106 191.98 71.8141C188.843 75.9363 185.664 76.4551 180.618 77.6499C179.752 77.8546 177.581 77.2072 176.006 78.3401C175.373 78.7923 175.225 80.6154 171.569 81.2913C167.914 81.9672 164.905 82.686 162.882 85.1326Z" fill="#455A64"/>
<path d="M166.867 62.5892C166.874 62.6477 166.874 62.7069 166.867 62.7654C166.867 62.8986 166.867 63.07 166.867 63.2937C166.867 63.5174 166.867 63.8126 166.867 64.1505C166.867 64.4885 166.833 64.8788 166.809 65.3167C166.635 67.7933 166.258 70.2513 165.681 72.6662C164.996 75.7364 163.892 79.3302 162.668 83.2762C161.303 87.5628 160.182 91.9237 159.312 96.3376C157.749 104.365 157.07 112.539 157.289 120.714C157.361 123.85 157.589 126.378 157.723 128.13C157.813 128.991 157.88 129.667 157.927 130.138C157.927 130.357 157.961 130.533 157.97 130.662C157.975 130.722 157.975 130.783 157.97 130.843C157.481 127.488 157.193 124.107 157.109 120.718C156.834 112.528 157.489 104.333 159.06 96.29C159.931 91.8679 161.06 87.5003 162.44 83.2096C163.677 79.2492 164.796 75.684 165.5 72.6281C166.09 70.2225 166.493 67.7749 166.705 65.3072C166.733 64.874 166.762 64.4837 166.786 64.1458C166.809 63.8078 166.786 63.527 166.814 63.2937C166.843 63.0605 166.814 62.8986 166.814 62.7654C166.828 62.7057 166.846 62.6469 166.867 62.5892Z" fill="#263238"/>
<path d="M186.502 72.5043C186.398 72.5268 186.293 72.5396 186.187 72.5424C185.983 72.5424 185.683 72.5424 185.293 72.5995C184.517 72.6566 183.389 72.7709 182.022 73.0041C180.417 73.2741 178.836 73.6672 177.291 74.1798C175.395 74.7947 173.581 75.637 171.888 76.6884C168.845 78.6627 166.139 81.1155 163.877 83.9521C163.011 85.0422 162.368 85.9656 161.945 86.6177C161.721 86.9414 161.569 87.2032 161.469 87.3698C161.417 87.4621 161.354 87.5483 161.283 87.6268C161.323 87.5294 161.37 87.4354 161.426 87.346C161.526 87.1651 161.669 86.8986 161.878 86.5701C162.45 85.6257 163.077 84.7151 163.754 83.8426C165.993 80.955 168.703 78.4655 171.769 76.4789C173.479 75.4164 175.315 74.5721 177.234 73.9656C178.787 73.4584 180.379 73.078 181.994 72.828C183.085 72.6564 184.184 72.5484 185.288 72.5043C185.678 72.5043 185.983 72.5043 186.187 72.5043C186.292 72.492 186.397 72.492 186.502 72.5043Z" fill="#263238"/>
<path d="M145.894 63.8268C145.982 63.833 146.069 63.8523 146.151 63.884C146.318 63.9316 146.56 64.0077 146.87 64.1172C147.746 64.4287 148.591 64.8224 149.393 65.2929C149.962 65.6111 150.47 66.0286 150.892 66.5258C151.326 67.1259 151.707 67.763 152.03 68.4298C152.387 69.1595 152.705 69.9079 152.982 70.6717C153.229 71.4989 153.519 72.3125 153.853 73.1088C154.662 74.6939 156.123 75.6697 157.351 76.5884C158.474 77.3877 159.528 78.2793 160.502 79.254C161.157 79.924 161.763 80.6398 162.316 81.396L162.744 82.0148C162.803 82.0828 162.849 82.16 162.882 82.2433C162.816 82.1838 162.757 82.1167 162.706 82.0434L162.23 81.4531C161.656 80.7317 161.041 80.0435 160.388 79.392C159.403 78.444 158.347 77.5735 157.228 76.7883C156.558 76.3239 155.913 75.825 155.295 75.2937C154.619 74.7185 154.057 74.0208 153.639 73.2374C153.304 72.4298 153.011 71.6052 152.763 70.7669C152.484 70.01 152.166 69.268 151.811 68.544C151.5 67.8888 151.134 67.2613 150.716 66.6686C150.312 66.1856 149.83 65.7751 149.288 65.4548C148.5 64.9764 147.674 64.5641 146.817 64.2219L146.118 63.9458C146.04 63.9134 145.965 63.8736 145.894 63.8268Z" fill="#263238"/>
<path d="M181.784 89.3405C181.718 89.4055 181.647 89.4645 181.57 89.5166L180.932 89.9926C180.375 90.3877 179.566 90.9446 178.529 91.6205C177.318 92.3982 176.045 93.0718 174.721 93.634C173.212 94.2575 171.493 94.7431 169.727 95.3333C166.711 96.365 163.886 97.8864 161.364 99.8363C160.379 100.565 159.598 101.174 159.055 101.593C158.798 101.783 158.579 101.94 158.427 102.069C158.355 102.128 158.277 102.179 158.194 102.221C158.252 102.148 158.319 102.082 158.394 102.026L158.994 101.517C159.522 101.079 160.283 100.446 161.259 99.6982C163.763 97.6902 166.596 96.1312 169.632 95.0905C171.408 94.4955 173.126 94.0195 174.616 93.4103C175.936 92.8631 177.209 92.2104 178.424 91.4587C179.466 90.8256 180.29 90.2734 180.866 89.9021L181.527 89.4737C181.606 89.4165 181.692 89.3715 181.784 89.3405Z" fill="#263238"/>
<path d="M157.351 99.008C154.848 96.3329 155.481 91.6586 152.801 89.1643C151.135 87.6173 148.593 87.346 146.851 85.8752C145.713 84.9232 145.018 83.5285 143.938 82.5098C141.9 80.6058 138.873 80.2726 136.079 80.0537C136.337 82.7527 137.295 85.3375 138.86 87.5518C140.425 89.7661 142.541 91.5329 144.999 92.6772C146.18 93.2103 147.474 93.6292 148.379 94.5526C149.007 95.2 149.388 96.052 149.964 96.747C150.894 97.7968 152.132 98.5264 153.5 98.8319C154.859 99.1358 156.245 99.2953 157.637 99.3079" fill="#455A64"/>
<path d="M141.163 83.4238C141.186 83.4238 141.32 83.7284 141.639 84.2473C142.093 84.9764 142.642 85.6422 143.271 86.2274C144.213 87.0934 145.224 87.8814 146.294 88.5836C147.489 89.3976 148.821 90.2924 150.102 91.3587C152.3 93.1951 154.336 95.2159 156.19 97.3991C156.909 98.2321 157.466 98.9223 157.846 99.4031C158.022 99.6268 158.161 99.8125 158.28 99.96C158.332 100.025 158.379 100.095 158.418 100.169C158.418 100.169 158.346 100.112 158.241 99.9933L157.765 99.465L156.052 97.5134C154.169 95.3746 152.126 93.3823 149.94 91.5538C148.655 90.4876 147.341 89.5975 146.132 88.7693C145.059 88.0548 144.051 87.2472 143.119 86.3559C142.491 85.7478 141.953 85.0539 141.52 84.2948C141.4 84.0905 141.297 83.8773 141.21 83.657C141.181 83.5825 141.165 83.5036 141.163 83.4238Z" fill="#263238"/>
<path d="M154.457 112.841C154.381 110.86 153.758 108.776 152.106 107.709C151.401 107.233 150.573 106.976 149.945 106.415C149.389 105.811 148.909 105.141 148.517 104.42C147.189 102.449 145.066 101.188 143.014 99.9933L140.587 98.5653C140.359 98.3897 140.073 98.3064 139.787 98.3321C139.655 98.3725 139.536 98.447 139.443 98.5482C139.349 98.6494 139.284 98.7735 139.254 98.908C139.201 99.18 139.201 99.4595 139.254 99.7315C139.449 101.378 139.768 103.007 140.206 104.606C140.582 105.991 141.082 107.4 142.11 108.414C143.243 109.542 144.856 110.013 146.232 110.827C147.403 111.513 148.431 112.465 149.712 112.926C151.192 113.459 152.929 113.05 154.472 112.831" fill="#455A64"/>
<path d="M142.41 102.716C142.584 102.895 142.743 103.087 142.886 103.292L144.171 104.906C145.546 106.699 147.168 108.288 148.988 109.628C150.047 110.28 151.138 110.877 152.258 111.417C153.286 111.941 154.2 112.436 154.943 112.898C155.535 113.255 156.094 113.665 156.614 114.121C156.756 114.244 156.89 114.378 157.013 114.521C157.061 114.566 157.103 114.617 157.137 114.673C157.137 114.673 156.932 114.497 156.552 114.197C156.016 113.771 155.448 113.388 154.852 113.05C154.105 112.612 153.186 112.136 152.153 111.622C151.019 111.089 149.916 110.491 148.85 109.832C147.005 108.484 145.378 106.859 144.028 105.015C143.5 104.325 143.076 103.749 142.805 103.354C142.654 103.153 142.522 102.94 142.41 102.716Z" fill="#263238"/>
<path d="M171.398 109.689C171.188 109.851 170.963 109.993 170.727 110.113C170.503 110.237 170.251 110.394 169.927 110.589C169.604 110.784 169.266 110.989 168.89 111.251C168.123 111.727 167.247 112.384 166.305 113.131C165.289 113.953 164.32 114.83 163.401 115.758C162.491 116.694 161.631 117.677 160.826 118.705C160.093 119.657 159.47 120.552 158.989 121.323C158.732 121.704 158.513 122.065 158.346 122.375C158.18 122.684 158.003 122.956 157.87 123.179C157.756 123.419 157.619 123.647 157.461 123.86C157.549 123.611 157.657 123.369 157.785 123.136C157.894 122.903 158.037 122.622 158.213 122.303C158.389 121.985 158.584 121.618 158.827 121.232C159.382 120.313 159.984 119.423 160.631 118.567C161.434 117.524 162.295 116.528 163.211 115.582C164.138 114.648 165.12 113.771 166.153 112.955C166.996 112.29 167.874 111.672 168.785 111.103C169.166 110.851 169.532 110.651 169.846 110.47C170.161 110.289 170.437 110.142 170.67 110.027C170.903 109.896 171.147 109.783 171.398 109.689Z" fill="#263238"/>
<path d="M163.577 133.118C162.913 131.342 162.117 129.617 161.197 127.958C160.274 126.383 158.932 124.826 157.123 124.626C156.444 124.584 155.764 124.687 155.129 124.929C154.493 125.171 153.917 125.547 153.439 126.031C152.489 127.002 151.688 128.107 151.059 129.31C149.907 131.271 148.753 133.232 147.598 135.194L149.502 137.778C152.945 139.103 156.71 139.343 160.293 138.464C162.007 138.035 163.925 137.012 164.058 135.251C164.063 134.512 163.898 133.783 163.577 133.118Z" fill="#A87058"/>
<path d="M158.76 131.885C158.76 131.885 155.6 130.767 154.319 130.486C153.039 130.205 147.393 130.138 146.589 130.205C145.785 130.272 137.278 136.212 137.278 136.212L140.42 143.433L142.167 142.781C142.167 142.781 149.307 144.461 152.387 144.794C155.466 145.128 159.051 145.27 160.721 144.794C162.392 144.318 165.615 142.324 165.615 142.324C165.615 142.324 165.748 141.372 163.934 141.448C162.121 141.524 160.374 142.053 159.565 142.053C158.756 142.053 155.8 141.786 155.8 141.786L162.321 141.182L167.557 137.654L167.019 136.474C167.019 136.474 168.228 135.736 168.095 135.127C167.961 134.518 167.086 133.851 165.943 133.984C164.801 134.118 161.183 134.794 161.183 134.794C161.183 134.794 155.947 135.06 153.453 134.66C150.959 134.261 150.021 133.651 150.021 133.651L153.653 133.585C153.653 133.585 156.409 134.389 158.023 133.718C159.636 133.047 158.76 131.885 158.76 131.885Z" fill="#FFBF9D"/>
<path d="M154.105 138.773C154.276 138.73 154.452 138.711 154.629 138.716L156.057 138.63C157.261 138.549 158.913 138.387 160.736 138.088C162.559 137.788 164.172 137.397 165.339 137.083L166.719 136.702C166.884 136.641 167.057 136.602 167.233 136.588C167.083 136.676 166.923 136.746 166.757 136.798C166.443 136.917 165.976 137.074 165.396 137.274C162.369 138.189 159.236 138.711 156.076 138.825C155.466 138.825 154.976 138.825 154.648 138.825C154.465 138.828 154.283 138.811 154.105 138.773Z" fill="#FF9A6C"/>
<path d="M74.6939 116.715C74.6939 116.715 88.0219 161.036 95.4571 162.002C102.892 162.968 140.406 143.438 140.406 143.438L137.278 136.217L102.616 145.361C102.616 145.361 95.1524 117.924 93.9529 113.35C92.7534 108.776 86.732 97.461 82.3956 99.146C78.0593 100.831 73.0089 107.809 74.6939 116.715Z" fill="#FFBF9D"/>
<path d="M74.9938 130.486L98.8224 123.793C98.8224 123.793 92.1584 92.1203 78.3544 99.8315C68.6916 105.196 74.9938 130.486 74.9938 130.486Z" fill="#455A64"/>
<path d="M74.8225 130.781L74.7653 130.543C73.7478 126.154 73.0997 121.688 72.828 117.191C72.3282 107.814 74.1465 101.902 78.2306 99.622C80.8248 98.194 83.3571 97.9941 85.7609 99.0889C89.4928 100.788 92.8724 105.458 95.795 112.974C97.1423 116.485 98.232 120.09 99.0556 123.76L99.1032 123.979L74.8225 130.781ZM82.5813 98.8604C81.126 98.8916 79.7032 99.2964 78.4496 100.036C69.5722 104.996 74.5654 127.611 75.1699 130.191L98.532 123.627C97.7095 120.065 96.6374 116.566 95.3238 113.155C93.3484 108.071 90.0449 101.583 85.542 99.5364C84.615 99.1013 83.6052 98.8708 82.5813 98.8604Z" fill="#263238"/>
</svg>
