<svg xmlns="http://www.w3.org/2000/svg" viewBox="0 0 32 32" id="wifi"><g><path d="M16,20a4,4,0,1,1,4-4A4,4,0,0,1,16,20Zm0-6a2,2,0,1,0,2,2A2,2,0,0,0,16,14Z"></path><path d="M30 15.81h0a1 1 0 0 1-1-.9A13 13 0 0 0 3 14.92a1 1 0 0 1-1 .9H2a1 1 0 0 1-1-1.1 15 15 0 0 1 29.92 0A1 1 0 0 1 30 15.81zM24 30H8a3 3 0 0 1 0-6H24a3 3 0 0 1 0 6zM8 26a1 1 0 0 0 0 2H24a1 1 0 0 0 0-2z"></path><rect width="2" height="6" x="15" y="19"></rect><path d="M24.9,16.13h0a1,1,0,0,1-1-.87A8,8,0,0,0,8,15.26a1,1,0,0,1-1,.87H7A1,1,0,0,1,6,15,10,10,0,0,1,25.9,15,1,1,0,0,1,24.9,16.13Z"></path></g></svg>